<?xml version="1.0" encoding="utf-8"?>
<!-- Generator: Adobe Illustrator 19.2.1, SVG Export Plug-In . SVG Version: 6.00 Build 0)  -->
<svg version="1.1" id="Layer_1" xmlns="http://www.w3.org/2000/svg" xmlns:xlink="http://www.w3.org/1999/xlink" x="0px" y="0px"
	 viewBox="0 0 160 160" enable-background="new 0 0 160 160" xml:space="preserve">
<path fill="#E6E6E6" d="M120,128H32c-2.195,0-4.218,0.922-5.75,2.453c-1.546,1.539-2.312,3.406-2.312,5.594
	c0,2.195,0.766,4.062,2.312,5.594c1.532,1.539,3.391,2.305,5.586,2.305L136,144L120,128z"/>
<path fill="#FFFFFF" d="M128,16v112l-8-0.004L136,144V24L128,16z"/>
<path opacity="0.9" fill="#E0A000" d="M144,24v128H32c-4.336,0-8.086-1.586-11.25-4.75C17.578,144.078,16,140.336,16,136V24
	c0-4.328,1.578-8.078,4.75-11.25C23.914,9.578,27.664,8,32,8v120c-2.195,0-4.218,0.922-5.75,2.453
	c-1.546,1.539-2.312,3.406-2.312,5.594c0,2.195,0.766,4.062,2.312,5.594c1.532,1.539,3.391,2.305,5.586,2.305L136,144V24H144z"/>
<rect x="32" y="8" opacity="0.9" fill="#E8B000" width="96" height="120"/>
<g>
</g>
<g>
</g>
<g>
</g>
<g>
</g>
<g>
</g>
<g>
</g>
<g>
</g>
<g>
</g>
<g>
</g>
<g>
</g>
<g>
</g>
<g>
</g>
<g>
</g>
<g>
</g>
<g>
</g>
</svg>
