<?xml version="1.0" encoding="utf-8"?>
<!-- Generator: Adobe Illustrator 19.2.1, SVG Export Plug-In . SVG Version: 6.00 Build 0)  -->
<svg version="1.1" id="Layer_1" xmlns="http://www.w3.org/2000/svg" xmlns:xlink="http://www.w3.org/1999/xlink" x="0px" y="0px"
	 viewBox="0 0 800 360" enable-background="new 0 0 800 360" xml:space="preserve">
<rect fill-rule="evenodd" clip-rule="evenodd" fill="#323232" width="800" height="360"/>
<rect x="20" fill="#303030" width="760" height="48"/>
<path fill="#777777" d="M775,290H25c-2.761,0-5-2.239-5-5V48h760v237C780,287.761,777.761,290,775,290z"/>
<linearGradient id="SVGID_1_" gradientUnits="userSpaceOnUse" x1="20" y1="113.5" x2="362" y2="113.5">
	<stop  offset="0" style="stop-color:#010101;stop-opacity:0.5"/>
	<stop  offset="1" style="stop-color:#010101;stop-opacity:0"/>
</linearGradient>
<rect x="20" y="48" fill="url(#SVGID_1_)" width="342" height="131"/>
<g>
	<path fill="#CCCCCC" d="M74.742,31l-1.426-3.965h-5.459L66.461,31H64l5.342-14.336h2.539L77.223,31H74.742z M72.701,25.023
		l-1.338-3.887c-0.098-0.26-0.233-0.67-0.405-1.23s-0.292-0.97-0.356-1.23c-0.176,0.801-0.433,1.676-0.771,2.627l-1.289,3.721
		H72.701z"/>
	<path fill="#CCCCCC" d="M84.381,20.004c1.348,0,2.397,0.488,3.149,1.465s1.128,2.347,1.128,4.111c0,1.771-0.381,3.149-1.143,4.136
		s-1.82,1.479-3.174,1.479c-1.367,0-2.428-0.492-3.184-1.475h-0.156L80.582,31h-1.719V15.805h2.295v3.613
		c0,0.267-0.013,0.664-0.039,1.191s-0.045,0.863-0.059,1.006h0.098C81.887,20.541,82.961,20.004,84.381,20.004z M83.785,21.879
		c-0.924,0-1.59,0.272-1.997,0.815s-0.617,1.454-0.63,2.729v0.156c0,1.315,0.208,2.267,0.625,2.856s1.097,0.884,2.041,0.884
		c0.814,0,1.431-0.322,1.851-0.967s0.63-1.576,0.63-2.793C86.305,23.106,85.465,21.879,83.785,21.879z"/>
	<path fill="#CCCCCC" d="M100.904,25.58c0,1.764-0.453,3.141-1.357,4.131s-2.165,1.484-3.779,1.484
		c-1.009,0-1.901-0.228-2.676-0.684s-1.371-1.11-1.787-1.963s-0.625-1.842-0.625-2.969c0-1.751,0.449-3.119,1.348-4.102
		s2.165-1.475,3.799-1.475c1.563,0,2.799,0.503,3.711,1.509S100.904,23.875,100.904,25.58z M93.043,25.58
		c0,2.494,0.921,3.74,2.764,3.74c1.823,0,2.734-1.247,2.734-3.74c0-2.467-0.918-3.701-2.754-3.701c-0.963,0-1.662,0.319-2.095,0.957
		S93.043,24.389,93.043,25.58z"/>
	<path fill="#CCCCCC" d="M111.158,31l-0.322-1.416h-0.117c-0.319,0.501-0.773,0.895-1.362,1.182s-1.261,0.43-2.017,0.43
		c-1.309,0-2.285-0.326-2.93-0.977s-0.967-1.637-0.967-2.959v-7.061h2.314v6.66c0,0.827,0.169,1.447,0.508,1.86
		s0.869,0.62,1.592,0.62c0.963,0,1.671-0.288,2.124-0.864s0.679-1.542,0.679-2.896v-5.381h2.305V31H111.158z"/>
	<path fill="#CCCCCC" d="M120.26,29.34c0.56,0,1.12-0.088,1.68-0.264v1.729c-0.254,0.111-0.581,0.204-0.981,0.278
		s-0.815,0.112-1.245,0.112c-2.174,0-3.262-1.146-3.262-3.438v-5.82h-1.475v-1.016l1.582-0.84l0.781-2.285h1.416v2.402h3.076v1.738
		h-3.076v5.781c0,0.553,0.138,0.962,0.415,1.226S119.811,29.34,120.26,29.34z"/>
	<path fill="#CCCCCC" d="M146.002,18.52c-1.341,0-2.396,0.475-3.164,1.426s-1.152,2.262-1.152,3.936c0,1.751,0.37,3.076,1.108,3.975
		s1.808,1.348,3.208,1.348c0.605,0,1.191-0.06,1.758-0.181s1.156-0.275,1.768-0.464v2.002c-1.12,0.423-2.389,0.635-3.809,0.635
		c-2.09,0-3.695-0.633-4.814-1.899s-1.68-3.078-1.68-5.435c0-1.484,0.272-2.783,0.815-3.896s1.33-1.966,2.358-2.559
		s2.236-0.889,3.623-0.889c1.458,0,2.806,0.306,4.043,0.918l-0.84,1.943c-0.482-0.228-0.991-0.428-1.528-0.601
		S146.594,18.52,146.002,18.52z"/>
	<path fill="#CCCCCC" d="M161.939,25.58c0,1.764-0.453,3.141-1.357,4.131s-2.165,1.484-3.779,1.484
		c-1.009,0-1.901-0.228-2.676-0.684s-1.371-1.11-1.787-1.963s-0.625-1.842-0.625-2.969c0-1.751,0.449-3.119,1.348-4.102
		s2.165-1.475,3.799-1.475c1.563,0,2.799,0.503,3.711,1.509S161.939,23.875,161.939,25.58z M154.078,25.58
		c0,2.494,0.921,3.74,2.764,3.74c1.823,0,2.734-1.247,2.734-3.74c0-2.467-0.918-3.701-2.754-3.701c-0.963,0-1.662,0.319-2.095,0.957
		S154.078,24.389,154.078,25.58z"/>
	<path fill="#CCCCCC" d="M174.078,31h-2.305v-6.641c0-0.833-0.167-1.455-0.503-1.865s-0.868-0.615-1.597-0.615
		c-0.97,0-1.68,0.287-2.129,0.859s-0.674,1.533-0.674,2.881V31h-2.295V20.199h1.797l0.322,1.416h0.117
		c0.326-0.514,0.788-0.912,1.387-1.191s1.263-0.42,1.992-0.42c2.591,0,3.887,1.318,3.887,3.955V31z"/>
	<path fill="#CCCCCC" d="M181.295,29.34c0.56,0,1.12-0.088,1.68-0.264v1.729c-0.254,0.111-0.581,0.204-0.981,0.278
		s-0.815,0.112-1.245,0.112c-2.174,0-3.262-1.146-3.262-3.438v-5.82h-1.475v-1.016l1.582-0.84l0.781-2.285h1.416v2.402h3.076v1.738
		h-3.076v5.781c0,0.553,0.138,0.962,0.415,1.226S180.846,29.34,181.295,29.34z"/>
	<path fill="#CCCCCC" d="M191.891,31l-0.459-1.504h-0.078c-0.521,0.658-1.045,1.105-1.572,1.343s-1.205,0.356-2.031,0.356
		c-1.061,0-1.89-0.287-2.485-0.859s-0.894-1.383-0.894-2.432c0-1.113,0.414-1.953,1.24-2.52s2.086-0.875,3.779-0.928l1.865-0.059
		v-0.576c0-0.69-0.161-1.206-0.483-1.548s-0.822-0.513-1.499-0.513c-0.553,0-1.084,0.082-1.592,0.244s-0.996,0.355-1.465,0.576
		l-0.742-1.641c0.586-0.306,1.227-0.539,1.924-0.698s1.354-0.239,1.973-0.239c1.374,0,2.411,0.299,3.11,0.898s1.05,1.54,1.05,2.822
		V31H191.891z M188.473,29.438c0.833,0,1.502-0.233,2.007-0.698s0.757-1.118,0.757-1.958v-0.938l-1.387,0.059
		c-1.081,0.039-1.867,0.22-2.358,0.542s-0.737,0.815-0.737,1.479c0,0.482,0.143,0.854,0.43,1.118S187.9,29.438,188.473,29.438z"/>
	<path fill="#CCCCCC" d="M201.09,31.195c-1.634,0-2.876-0.477-3.726-1.431s-1.274-2.323-1.274-4.106
		c0-1.816,0.444-3.213,1.333-4.189s2.173-1.465,3.853-1.465c1.14,0,2.165,0.211,3.076,0.635l-0.693,1.846
		c-0.97-0.377-1.771-0.566-2.402-0.566c-1.869,0-2.803,1.24-2.803,3.721c0,1.211,0.233,2.121,0.698,2.729s1.147,0.913,2.046,0.913
		c1.022,0,1.989-0.254,2.9-0.762v2.002c-0.41,0.241-0.848,0.414-1.313,0.518S201.754,31.195,201.09,31.195z"/>
	<path fill="#CCCCCC" d="M210.66,29.34c0.56,0,1.12-0.088,1.68-0.264v1.729c-0.254,0.111-0.581,0.204-0.981,0.278
		s-0.815,0.112-1.245,0.112c-2.175,0-3.262-1.146-3.262-3.438v-5.82h-1.475v-1.016l1.582-0.84l0.781-2.285h1.416v2.402h3.076v1.738
		h-3.076v5.781c0,0.553,0.139,0.962,0.415,1.226S210.211,29.34,210.66,29.34z"/>
	<path fill="#CCCCCC" d="M238.561,27.123c0,1.27-0.459,2.266-1.377,2.988s-2.185,1.084-3.799,1.084s-2.937-0.25-3.965-0.752v-2.207
		c0.651,0.306,1.343,0.547,2.075,0.723s1.414,0.264,2.046,0.264c0.925,0,1.606-0.176,2.046-0.527s0.659-0.824,0.659-1.416
		c0-0.534-0.202-0.986-0.605-1.357s-1.237-0.811-2.5-1.318c-1.302-0.527-2.22-1.129-2.754-1.807s-0.801-1.491-0.801-2.441
		c0-1.191,0.423-2.129,1.27-2.813s1.982-1.025,3.408-1.025c1.367,0,2.728,0.299,4.082,0.898l-0.742,1.904
		c-1.27-0.534-2.402-0.801-3.398-0.801c-0.755,0-1.328,0.165-1.719,0.493s-0.586,0.763-0.586,1.304c0,0.371,0.078,0.688,0.234,0.952
		s0.413,0.513,0.771,0.747s1.003,0.543,1.934,0.928c1.048,0.436,1.816,0.843,2.305,1.221s0.847,0.804,1.074,1.279
		S238.561,26.479,238.561,27.123z"/>
	<path fill="#CCCCCC" d="M240.943,17.338c0-0.41,0.112-0.726,0.337-0.947s0.545-0.332,0.962-0.332c0.403,0,0.718,0.111,0.942,0.332
		s0.337,0.537,0.337,0.947c0,0.391-0.112,0.698-0.337,0.923s-0.539,0.337-0.942,0.337c-0.417,0-0.737-0.112-0.962-0.337
		S240.943,17.729,240.943,17.338z M243.375,31h-2.295V20.199h2.295V31z"/>
	<path fill="#CCCCCC" d="M250.68,29.34c0.56,0,1.12-0.088,1.68-0.264v1.729c-0.254,0.111-0.581,0.204-0.981,0.278
		s-0.815,0.112-1.245,0.112c-2.175,0-3.262-1.146-3.262-3.438v-5.82h-1.475v-1.016l1.582-0.84l0.781-2.285h1.416v2.402h3.076v1.738
		h-3.076v5.781c0,0.553,0.139,0.962,0.415,1.226S250.23,29.34,250.68,29.34z"/>
	<path fill="#CCCCCC" d="M259.234,31.195c-1.68,0-2.993-0.49-3.94-1.47s-1.421-2.329-1.421-4.048c0-1.764,0.439-3.151,1.318-4.16
		s2.087-1.514,3.623-1.514c1.426,0,2.552,0.433,3.379,1.299s1.24,2.057,1.24,3.574v1.24h-7.197c0.032,1.048,0.315,1.854,0.85,2.417
		s1.286,0.845,2.256,0.845c0.638,0,1.232-0.06,1.782-0.181s1.141-0.321,1.772-0.601v1.865c-0.56,0.267-1.126,0.456-1.699,0.566
		S259.97,31.195,259.234,31.195z M258.814,21.742c-0.729,0-1.313,0.231-1.753,0.693s-0.701,1.136-0.786,2.021h4.902
		c-0.013-0.892-0.228-1.567-0.645-2.026S259.544,21.742,258.814,21.742z"/>
	<path fill="#CCCCCC" d="M280.338,31h-2.305v-6.66c0-0.827-0.156-1.444-0.469-1.851s-0.801-0.61-1.465-0.61
		c-0.886,0-1.535,0.288-1.948,0.864s-0.62,1.535-0.62,2.876V31h-2.295V20.199h1.797l0.322,1.416h0.117
		c0.3-0.514,0.734-0.912,1.304-1.191s1.196-0.42,1.88-0.42c1.66,0,2.761,0.566,3.301,1.699h0.156
		c0.319-0.534,0.769-0.951,1.348-1.25s1.243-0.449,1.992-0.449c1.289,0,2.229,0.326,2.817,0.977s0.884,1.644,0.884,2.979V31h-2.295
		v-6.66c0-0.827-0.158-1.444-0.474-1.851s-0.806-0.61-1.47-0.61c-0.892,0-1.545,0.278-1.958,0.835s-0.62,1.411-0.62,2.563V31z"/>
	<path fill="#CCCCCC" d="M297.115,31l-0.459-1.504h-0.078c-0.521,0.658-1.045,1.105-1.572,1.343s-1.204,0.356-2.031,0.356
		c-1.062,0-1.89-0.287-2.485-0.859s-0.894-1.383-0.894-2.432c0-1.113,0.413-1.953,1.24-2.52s2.087-0.875,3.779-0.928l1.865-0.059
		v-0.576c0-0.69-0.161-1.206-0.483-1.548s-0.822-0.513-1.499-0.513c-0.554,0-1.084,0.082-1.592,0.244s-0.996,0.355-1.465,0.576
		l-0.742-1.641c0.586-0.306,1.228-0.539,1.924-0.698s1.354-0.239,1.973-0.239c1.374,0,2.41,0.299,3.11,0.898s1.05,1.54,1.05,2.822
		V31H297.115z M293.697,29.438c0.833,0,1.502-0.233,2.007-0.698s0.757-1.118,0.757-1.958v-0.938l-1.387,0.059
		c-1.081,0.039-1.867,0.22-2.358,0.542s-0.737,0.815-0.737,1.479c0,0.482,0.144,0.854,0.43,1.118S293.124,29.438,293.697,29.438z"/>
	<path fill="#CCCCCC" d="M307.438,31.195c-1.367,0-2.429-0.492-3.184-1.475h-0.137c0.091,0.912,0.137,1.465,0.137,1.66v4.424h-2.295
		V20.199h1.855c0.052,0.202,0.159,0.684,0.322,1.445h0.117c0.716-1.094,1.79-1.641,3.223-1.641c1.348,0,2.397,0.488,3.149,1.465
		s1.128,2.347,1.128,4.111s-0.383,3.141-1.147,4.131S308.785,31.195,307.438,31.195z M306.881,21.879
		c-0.911,0-1.577,0.267-1.997,0.801s-0.63,1.387-0.63,2.559v0.342c0,1.315,0.208,2.267,0.625,2.856s1.097,0.884,2.041,0.884
		c0.794,0,1.406-0.326,1.836-0.977s0.645-1.579,0.645-2.783c0-1.211-0.213-2.127-0.64-2.749S307.708,21.879,306.881,21.879z"/>
</g>
<path fill-rule="evenodd" clip-rule="evenodd" fill="#CCCCCC" d="M714,33.105l-5.348-5.348c0.889-1.587,1.398-3.412,1.398-5.359
	c0-6.074-4.924-11-11-11c-6.076,0-11,4.926-11,11c0,6.074,4.924,11,11,11c1.947,0,3.773-0.511,5.359-1.398l5.348,5.349L714,33.105z
	 M691.051,22.398c0-4.418,3.582-8,8-8c4.418,0,8,3.582,8,8s-3.582,8-8,8C694.633,30.398,691.051,26.816,691.051,22.398z"/>
<g>
	<path fill="#F4F4F4" d="M82.793,87.922H71.191L67.207,98H65l11.484-28.672h1.27L89.004,98h-2.246L82.793,87.922z M71.914,86.125
		h10.215l-3.887-10.293c-0.326-0.807-0.716-1.927-1.172-3.359c-0.352,1.25-0.736,2.383-1.152,3.398L71.914,86.125z"/>
	<path fill="#F4F4F4" d="M94.492,98h-1.934V67.609h1.934V98z"/>
	<path fill="#F4F4F4" d="M110.566,76.359c2.969,0,5.205,0.935,6.709,2.803c1.504,1.869,2.256,4.6,2.256,8.193
		c0,3.529-0.791,6.25-2.373,8.164s-3.806,2.871-6.67,2.871c-1.511,0-2.871-0.313-4.082-0.938s-2.168-1.51-2.871-2.656h-0.176
		L102.813,98h-1.211V67.609h1.934v7.637c0,1.146-0.026,2.201-0.078,3.164l-0.059,1.66h0.137c0.807-1.276,1.78-2.213,2.92-2.813
		C107.594,76.659,108.965,76.359,110.566,76.359z M110.527,78.117c-2.5,0-4.291,0.716-5.371,2.148
		c-1.081,1.433-1.621,3.796-1.621,7.09v0.332c0,3.203,0.563,5.501,1.689,6.895c1.126,1.394,2.881,2.09,5.264,2.09
		c2.317,0,4.063-0.811,5.234-2.432s1.758-3.929,1.758-6.924C117.48,81.184,115.163,78.117,110.527,78.117z"/>
	<path fill="#F4F4F4" d="M127.09,76.77v13.75c0,2.136,0.449,3.688,1.348,4.658c0.898,0.97,2.292,1.455,4.18,1.455
		c2.526,0,4.385-0.638,5.576-1.914c1.191-1.276,1.787-3.353,1.787-6.23V76.77h1.914V98h-1.641l-0.352-2.93h-0.117
		c-1.38,2.214-3.835,3.32-7.363,3.32c-4.831,0-7.246-2.584-7.246-7.754V76.77H127.09z"/>
	<path fill="#F4F4F4" d="M175.527,98V84.074c0-2.07-0.404-3.581-1.211-4.531c-0.808-0.95-2.044-1.426-3.711-1.426
		c-2.175,0-3.783,0.599-4.824,1.797c-1.042,1.198-1.563,3.08-1.563,5.645V98h-1.973V83.488c0-3.581-1.641-5.371-4.922-5.371
		c-2.227,0-3.848,0.648-4.863,1.943c-1.016,1.296-1.523,3.369-1.523,6.221V98h-1.934V76.77h1.602l0.41,2.91h0.117
		c0.586-1.055,1.419-1.872,2.5-2.451c1.081-0.579,2.272-0.869,3.574-0.869c3.346,0,5.495,1.257,6.445,3.77h0.078
		c0.69-1.211,1.618-2.142,2.783-2.793c1.165-0.651,2.49-0.977,3.975-0.977c2.317,0,4.056,0.619,5.215,1.855
		c1.159,1.237,1.738,3.203,1.738,5.898V98H175.527z"/>
	<path fill="#F4F4F4" d="M200.313,96.672c1.224,0,2.292-0.104,3.203-0.313v1.563c-0.938,0.313-2.019,0.469-3.242,0.469
		c-1.875,0-3.259-0.501-4.15-1.504c-0.892-1.002-1.338-2.578-1.338-4.727V78.449h-3.145v-1.133l3.145-0.879l0.977-4.805h0.996v5.137
		h6.23v1.68h-6.23v13.438c0,1.628,0.286,2.832,0.859,3.613C198.19,96.281,199.088,96.672,200.313,96.672z"/>
	<path fill="#F4F4F4" d="M207.832,70.871c0-1.25,0.41-1.875,1.23-1.875c0.403,0,0.72,0.163,0.947,0.488
		c0.228,0.326,0.342,0.788,0.342,1.387c0,0.586-0.114,1.048-0.342,1.387c-0.228,0.339-0.544,0.508-0.947,0.508
		C208.242,72.766,207.832,72.134,207.832,70.871z M210.039,98h-1.934V76.77h1.934V98z"/>
	<path fill="#F4F4F4" d="M222.754,96.672c1.224,0,2.292-0.104,3.203-0.313v1.563c-0.938,0.313-2.019,0.469-3.242,0.469
		c-1.875,0-3.259-0.501-4.15-1.504c-0.892-1.002-1.338-2.578-1.338-4.727V78.449h-3.145v-1.133l3.145-0.879l0.977-4.805h0.996v5.137
		h6.23v1.68h-6.23v13.438c0,1.628,0.286,2.832,0.859,3.613S221.53,96.672,222.754,96.672z"/>
	<path fill="#F4F4F4" d="M232.48,98h-1.934V67.609h1.934V98z"/>
	<path fill="#F4F4F4" d="M248.164,98.391c-3.086,0-5.491-0.95-7.217-2.852c-1.726-1.901-2.588-4.563-2.588-7.988
		c0-3.385,0.833-6.097,2.5-8.135c1.667-2.038,3.913-3.057,6.738-3.057c2.5,0,4.473,0.873,5.918,2.617
		c1.445,1.745,2.168,4.115,2.168,7.109v1.563h-15.293c0.026,2.917,0.706,5.144,2.041,6.68c1.335,1.537,3.245,2.305,5.732,2.305
		c1.211,0,2.275-0.084,3.193-0.254c0.918-0.169,2.08-0.534,3.486-1.094v1.758c-1.198,0.521-2.305,0.876-3.32,1.064
		S249.388,98.391,248.164,98.391z M247.598,78.078c-2.044,0-3.685,0.674-4.922,2.021s-1.96,3.291-2.168,5.83h13.125
		c0-2.461-0.534-4.385-1.602-5.771S249.485,78.078,247.598,78.078z"/>
	<path fill="#F4F4F4" d="M78.359,122.725c0,2.357-0.64,4.159-1.919,5.405S73.32,130,70.918,130h-3.955v-14.277h4.375
		c2.22,0,3.945,0.615,5.176,1.846S78.359,120.518,78.359,122.725z M76.602,122.783c0-1.862-0.467-3.265-1.401-4.209
		s-2.323-1.416-4.165-1.416h-2.412v11.406h2.021c1.979,0,3.467-0.487,4.463-1.46S76.602,124.691,76.602,122.783z"/>
	<path fill="#F4F4F4" d="M85.82,130.195c-1.582,0-2.831-0.482-3.745-1.445s-1.372-2.301-1.372-4.014
		c0-1.725,0.425-3.096,1.274-4.111s1.991-1.523,3.423-1.523c1.341,0,2.402,0.441,3.184,1.323s1.172,2.046,1.172,3.491v1.025h-7.373
		c0.033,1.256,0.35,2.21,0.952,2.861s1.45,0.977,2.544,0.977c1.152,0,2.292-0.241,3.418-0.723v1.445
		c-0.573,0.248-1.115,0.425-1.626,0.532S86.543,130.195,85.82,130.195z M85.381,120.459c-0.859,0-1.544,0.28-2.056,0.84
		s-0.812,1.334-0.903,2.324h5.596c0-1.022-0.228-1.805-0.684-2.349S86.227,120.459,85.381,120.459z"/>
	<path fill="#F4F4F4" d="M99.424,127.08c0,0.996-0.371,1.764-1.113,2.305s-1.784,0.811-3.125,0.811c-1.419,0-2.526-0.225-3.32-0.674
		v-1.504c0.514,0.26,1.066,0.465,1.655,0.615s1.157,0.225,1.704,0.225c0.846,0,1.498-0.135,1.953-0.405s0.684-0.682,0.684-1.235
		c0-0.417-0.181-0.773-0.542-1.069s-1.066-0.646-2.114-1.05c-0.996-0.371-1.704-0.695-2.124-0.972s-0.732-0.591-0.938-0.942
		s-0.308-0.771-0.308-1.26c0-0.873,0.355-1.561,1.064-2.065s1.683-0.757,2.92-0.757c1.152,0,2.279,0.234,3.379,0.703l-0.576,1.318
		c-1.074-0.443-2.047-0.664-2.92-0.664c-0.768,0-1.348,0.121-1.738,0.361s-0.586,0.573-0.586,0.996c0,0.287,0.073,0.531,0.22,0.732
		s0.382,0.394,0.708,0.576s0.951,0.446,1.875,0.791c1.27,0.462,2.127,0.928,2.573,1.396S99.424,126.371,99.424,127.08z"/>
	<path fill="#F4F4F4" d="M106.338,130.195c-1.549,0-2.749-0.477-3.599-1.431s-1.274-2.303-1.274-4.048
		c0-1.791,0.431-3.174,1.294-4.15s2.091-1.465,3.687-1.465c0.514,0,1.029,0.055,1.543,0.166s0.918,0.241,1.211,0.391l-0.498,1.377
		c-0.358-0.143-0.749-0.262-1.172-0.356s-0.797-0.142-1.123-0.142c-2.174,0-3.262,1.387-3.262,4.16c0,1.315,0.265,2.324,0.796,3.027
		s1.317,1.055,2.358,1.055c0.892,0,1.807-0.192,2.744-0.576v1.436C108.327,130.01,107.425,130.195,106.338,130.195z"/>
	<path fill="#F4F4F4" d="M116.465,119.102c0.475,0,0.902,0.039,1.279,0.117l-0.225,1.504c-0.443-0.098-0.833-0.146-1.172-0.146
		c-0.866,0-1.606,0.352-2.222,1.055s-0.923,1.579-0.923,2.627V130h-1.621v-10.703h1.338l0.186,1.982h0.078
		c0.397-0.697,0.875-1.234,1.436-1.611S115.794,119.102,116.465,119.102z"/>
	<path fill="#F4F4F4" d="M119.609,116.396c0-0.371,0.091-0.643,0.273-0.815s0.41-0.259,0.684-0.259c0.26,0,0.485,0.088,0.674,0.264
		s0.283,0.446,0.283,0.811s-0.094,0.636-0.283,0.815s-0.414,0.269-0.674,0.269c-0.273,0-0.501-0.089-0.684-0.269
		S119.609,116.761,119.609,116.396z M121.367,130h-1.621v-10.703h1.621V130z"/>
	<path fill="#F4F4F4" d="M129.785,130.195c-0.697,0-1.333-0.128-1.909-0.386s-1.06-0.653-1.45-1.187h-0.117
		c0.078,0.625,0.117,1.217,0.117,1.777v4.404h-1.621v-15.508h1.318l0.225,1.465h0.078c0.417-0.586,0.902-1.009,1.455-1.27
		s1.188-0.391,1.904-0.391c1.419,0,2.515,0.485,3.286,1.455s1.157,2.331,1.157,4.082c0,1.758-0.392,3.124-1.177,4.097
		S131.178,130.195,129.785,130.195z M129.551,120.479c-1.094,0-1.885,0.303-2.373,0.908s-0.739,1.569-0.752,2.891v0.361
		c0,1.504,0.25,2.58,0.752,3.228s1.305,0.972,2.412,0.972c0.924,0,1.649-0.375,2.173-1.123s0.786-1.781,0.786-3.096
		c0-1.334-0.262-2.358-0.786-3.071S130.501,120.479,129.551,120.479z"/>
	<path fill="#F4F4F4" d="M140.518,128.857c0.287,0,0.563-0.021,0.83-0.063s0.479-0.086,0.635-0.132v1.24
		c-0.176,0.084-0.435,0.155-0.776,0.21s-0.649,0.083-0.923,0.083c-2.07,0-3.105-1.09-3.105-3.271v-6.367h-1.533v-0.781l1.533-0.674
		l0.684-2.285h0.938v2.48h3.105v1.26h-3.105v6.299c0,0.645,0.153,1.139,0.459,1.484S139.984,128.857,140.518,128.857z"/>
	<path fill="#F4F4F4" d="M143.984,116.396c0-0.371,0.091-0.643,0.273-0.815s0.41-0.259,0.684-0.259c0.26,0,0.485,0.088,0.674,0.264
		s0.283,0.446,0.283,0.811s-0.094,0.636-0.283,0.815s-0.414,0.269-0.674,0.269c-0.273,0-0.501-0.089-0.684-0.269
		S143.984,116.761,143.984,116.396z M145.742,130h-1.621v-10.703h1.621V130z"/>
	<path fill="#F4F4F4" d="M158.418,124.639c0,1.745-0.439,3.107-1.318,4.087s-2.093,1.47-3.643,1.47
		c-0.957,0-1.807-0.225-2.549-0.674s-1.315-1.094-1.719-1.934s-0.605-1.823-0.605-2.949c0-1.745,0.436-3.104,1.309-4.077
		s2.083-1.46,3.633-1.46c1.498,0,2.687,0.498,3.569,1.494S158.418,122.939,158.418,124.639z M150.264,124.639
		c0,1.367,0.273,2.409,0.82,3.125s1.351,1.074,2.412,1.074s1.867-0.356,2.417-1.069s0.825-1.756,0.825-3.13
		c0-1.361-0.275-2.394-0.825-3.101s-1.362-1.06-2.437-1.06c-1.061,0-1.862,0.348-2.402,1.045S150.264,123.258,150.264,124.639z"/>
	<path fill="#F4F4F4" d="M168.584,130v-6.924c0-0.873-0.199-1.523-0.596-1.953s-1.019-0.645-1.865-0.645
		c-1.12,0-1.94,0.303-2.461,0.908s-0.781,1.605-0.781,2.998V130h-1.621v-10.703h1.318l0.264,1.465h0.078
		c0.332-0.527,0.797-0.936,1.396-1.226s1.266-0.435,2.002-0.435c1.289,0,2.259,0.311,2.91,0.933s0.977,1.616,0.977,2.983V130
		H168.584z"/>
	<path fill="#F4F4F4" d="M187.969,124.639c0,1.745-0.439,3.107-1.318,4.087s-2.093,1.47-3.643,1.47
		c-0.957,0-1.807-0.225-2.549-0.674s-1.315-1.094-1.719-1.934s-0.605-1.823-0.605-2.949c0-1.745,0.436-3.104,1.309-4.077
		s2.083-1.46,3.633-1.46c1.498,0,2.687,0.498,3.569,1.494S187.969,122.939,187.969,124.639z M179.814,124.639
		c0,1.367,0.273,2.409,0.82,3.125s1.351,1.074,2.412,1.074s1.867-0.356,2.417-1.069s0.825-1.756,0.825-3.13
		c0-1.361-0.275-2.394-0.825-3.101s-1.362-1.06-2.437-1.06c-1.061,0-1.862,0.348-2.402,1.045S179.814,123.258,179.814,124.639z"/>
	<path fill="#F4F4F4" d="M195.635,120.557h-2.725V130h-1.621v-9.443h-1.914v-0.732l1.914-0.586v-0.596
		c0-2.63,1.149-3.945,3.447-3.945c0.566,0,1.23,0.114,1.992,0.342l-0.42,1.299c-0.625-0.202-1.159-0.303-1.602-0.303
		c-0.612,0-1.064,0.204-1.357,0.61s-0.439,1.06-0.439,1.958v0.693h2.725V120.557z"/>
	<path fill="#F4F4F4" d="M206.24,128.857c0.286,0,0.563-0.021,0.83-0.063s0.479-0.086,0.635-0.132v1.24
		c-0.176,0.084-0.435,0.155-0.776,0.21s-0.649,0.083-0.923,0.083c-2.07,0-3.105-1.09-3.105-3.271v-6.367h-1.533v-0.781l1.533-0.674
		l0.684-2.285h0.938v2.48h3.105v1.26h-3.105v6.299c0,0.645,0.153,1.139,0.459,1.484S205.706,128.857,206.24,128.857z"/>
	<path fill="#F4F4F4" d="M217.168,130v-6.924c0-0.873-0.198-1.523-0.596-1.953s-1.019-0.645-1.865-0.645
		c-1.126,0-1.948,0.306-2.466,0.918s-0.776,1.615-0.776,3.008V130h-1.621v-15.195h1.621v4.6c0,0.553-0.026,1.012-0.078,1.377h0.098
		c0.319-0.514,0.773-0.919,1.362-1.216s1.262-0.444,2.017-0.444c1.309,0,2.29,0.311,2.944,0.933s0.981,1.61,0.981,2.964V130H217.168
		z"/>
	<path fill="#F4F4F4" d="M221.982,116.396c0-0.371,0.091-0.643,0.273-0.815s0.41-0.259,0.684-0.259c0.261,0,0.485,0.088,0.674,0.264
		s0.283,0.446,0.283,0.811s-0.095,0.636-0.283,0.815s-0.413,0.269-0.674,0.269c-0.273,0-0.501-0.089-0.684-0.269
		S221.982,116.761,221.982,116.396z M223.74,130h-1.621v-10.703h1.621V130z"/>
	<path fill="#F4F4F4" d="M234.082,127.08c0,0.996-0.371,1.764-1.113,2.305s-1.784,0.811-3.125,0.811
		c-1.419,0-2.526-0.225-3.32-0.674v-1.504c0.515,0.26,1.066,0.465,1.655,0.615s1.157,0.225,1.704,0.225
		c0.847,0,1.497-0.135,1.953-0.405s0.684-0.682,0.684-1.235c0-0.417-0.181-0.773-0.542-1.069s-1.066-0.646-2.114-1.05
		c-0.996-0.371-1.704-0.695-2.124-0.972s-0.732-0.591-0.938-0.942s-0.308-0.771-0.308-1.26c0-0.873,0.354-1.561,1.064-2.065
		s1.683-0.757,2.92-0.757c1.152,0,2.278,0.234,3.379,0.703l-0.576,1.318c-1.074-0.443-2.048-0.664-2.92-0.664
		c-0.769,0-1.348,0.121-1.738,0.361s-0.586,0.573-0.586,0.996c0,0.287,0.073,0.531,0.22,0.732s0.383,0.394,0.708,0.576
		s0.95,0.446,1.875,0.791c1.27,0.462,2.127,0.928,2.573,1.396S234.082,126.371,234.082,127.08z"/>
	<path fill="#F4F4F4" d="M246.738,120.557h-2.725V130h-1.621v-9.443h-1.914v-0.732l1.914-0.586v-0.596
		c0-2.63,1.149-3.945,3.447-3.945c0.566,0,1.23,0.114,1.992,0.342l-0.42,1.299c-0.625-0.202-1.159-0.303-1.602-0.303
		c-0.612,0-1.064,0.204-1.357,0.61s-0.439,1.06-0.439,1.958v0.693h2.725V120.557z"/>
	<path fill="#F4F4F4" d="M257.93,124.639c0,1.745-0.439,3.107-1.318,4.087s-2.093,1.47-3.643,1.47c-0.957,0-1.807-0.225-2.549-0.674
		s-1.315-1.094-1.719-1.934s-0.605-1.823-0.605-2.949c0-1.745,0.437-3.104,1.309-4.077s2.083-1.46,3.633-1.46
		c1.497,0,2.688,0.498,3.569,1.494S257.93,122.939,257.93,124.639z M249.775,124.639c0,1.367,0.273,2.409,0.82,3.125
		s1.351,1.074,2.412,1.074s1.867-0.356,2.417-1.069s0.825-1.756,0.825-3.13c0-1.361-0.275-2.394-0.825-3.101s-1.362-1.06-2.437-1.06
		c-1.062,0-1.862,0.348-2.402,1.045S249.775,123.258,249.775,124.639z"/>
	<path fill="#F4F4F4" d="M262.393,130h-1.621v-15.195h1.621V130z"/>
	<path fill="#F4F4F4" d="M273.115,128.564h-0.088c-0.749,1.087-1.868,1.631-3.359,1.631c-1.399,0-2.488-0.479-3.267-1.436
		s-1.167-2.318-1.167-4.082s0.391-3.135,1.172-4.111s1.868-1.465,3.262-1.465c1.452,0,2.565,0.527,3.34,1.582h0.127l-0.068-0.771
		l-0.039-0.752v-4.355h1.621V130h-1.318L273.115,128.564z M269.873,128.838c1.106,0,1.909-0.301,2.407-0.903
		s0.747-1.574,0.747-2.915v-0.342c0-1.517-0.252-2.599-0.757-3.247s-1.311-0.972-2.417-0.972c-0.95,0-1.678,0.37-2.183,1.108
		s-0.757,1.782-0.757,3.13c0,1.367,0.251,2.399,0.752,3.096S268.903,128.838,269.873,128.838z"/>
	<path fill="#F4F4F4" d="M282.607,130.195c-1.582,0-2.83-0.482-3.745-1.445s-1.372-2.301-1.372-4.014
		c0-1.725,0.425-3.096,1.274-4.111s1.99-1.523,3.423-1.523c1.341,0,2.402,0.441,3.184,1.323s1.172,2.046,1.172,3.491v1.025h-7.373
		c0.032,1.256,0.35,2.21,0.952,2.861s1.45,0.977,2.544,0.977c1.152,0,2.292-0.241,3.418-0.723v1.445
		c-0.573,0.248-1.115,0.425-1.626,0.532S283.33,130.195,282.607,130.195z M282.168,120.459c-0.859,0-1.545,0.28-2.056,0.84
		s-0.813,1.334-0.903,2.324h5.596c0-1.022-0.228-1.805-0.684-2.349S283.015,120.459,282.168,120.459z"/>
	<path fill="#F4F4F4" d="M294.189,119.102c0.476,0,0.901,0.039,1.279,0.117l-0.225,1.504c-0.442-0.098-0.833-0.146-1.172-0.146
		c-0.866,0-1.606,0.352-2.222,1.055s-0.923,1.579-0.923,2.627V130h-1.621v-10.703h1.338l0.186,1.982h0.078
		c0.397-0.697,0.876-1.234,1.436-1.611S293.519,119.102,294.189,119.102z"/>
	<path fill="#B2B2B2" d="M71.531,150.578L67.273,162h-2.164l4.258-11.422H71.531z"/>
	<path fill="#F4F4F4" d="M77.203,150.578h3.555c1.62,0,2.795,0.23,3.527,0.691c0.731,0.461,1.098,1.194,1.098,2.199
		c0,0.683-0.16,1.242-0.48,1.68s-0.746,0.701-1.277,0.789v0.078c0.724,0.162,1.246,0.464,1.566,0.906
		c0.32,0.443,0.48,1.031,0.48,1.766c0,1.042-0.376,1.854-1.129,2.438C83.79,161.708,82.768,162,81.477,162h-4.273V150.578z
		 M79.625,155.102h1.406c0.656,0,1.131-0.102,1.426-0.305c0.294-0.203,0.441-0.539,0.441-1.008c0-0.438-0.16-0.751-0.48-0.941
		c-0.32-0.19-0.827-0.285-1.52-0.285h-1.273V155.102z M79.625,157.023V160h1.578c0.667,0,1.159-0.127,1.477-0.383
		c0.317-0.255,0.477-0.646,0.477-1.172c0-0.948-0.677-1.422-2.031-1.422H79.625z"/>
	<path fill="#F4F4F4" d="M92.641,153.102c0.323,0,0.591,0.023,0.805,0.07l-0.18,2.234c-0.193-0.052-0.427-0.078-0.703-0.078
		c-0.761,0-1.353,0.195-1.777,0.586c-0.425,0.391-0.637,0.938-0.637,1.641V162h-2.383v-8.734h1.805l0.352,1.469h0.117
		c0.271-0.489,0.637-0.884,1.098-1.184C91.598,153.251,92.099,153.102,92.641,153.102z"/>
	<path fill="#F4F4F4" d="M98.984,162.156c-1.406,0-2.505-0.388-3.297-1.164c-0.792-0.776-1.188-1.875-1.188-3.297
		c0-1.463,0.366-2.595,1.098-3.395c0.731-0.799,1.743-1.199,3.035-1.199c1.234,0,2.195,0.352,2.883,1.055s1.031,1.675,1.031,2.914
		v1.156h-5.633c0.026,0.677,0.227,1.206,0.602,1.586c0.375,0.38,0.901,0.57,1.578,0.57c0.526,0,1.023-0.055,1.492-0.164
		s0.958-0.284,1.469-0.523v1.844c-0.417,0.208-0.862,0.363-1.336,0.465C100.245,162.105,99.667,162.156,98.984,162.156z
		 M98.648,154.797c-0.505,0-0.901,0.16-1.188,0.48c-0.287,0.32-0.451,0.775-0.492,1.363h3.344c-0.011-0.588-0.164-1.043-0.461-1.363
		S99.153,154.797,98.648,154.797z"/>
	<path fill="#F4F4F4" d="M110.031,162l-0.461-1.188h-0.063c-0.401,0.505-0.814,0.855-1.238,1.051
		c-0.425,0.195-0.978,0.293-1.66,0.293c-0.839,0-1.499-0.239-1.98-0.719c-0.482-0.479-0.723-1.161-0.723-2.047
		c0-0.927,0.324-1.61,0.973-2.051c0.648-0.44,1.626-0.684,2.934-0.73l1.516-0.047v-0.383c0-0.885-0.453-1.328-1.359-1.328
		c-0.698,0-1.519,0.211-2.461,0.633l-0.789-1.609c1.005-0.526,2.12-0.789,3.344-0.789c1.172,0,2.07,0.255,2.695,0.766
		c0.625,0.511,0.938,1.287,0.938,2.328V162H110.031z M109.328,157.953l-0.922,0.031c-0.693,0.021-1.208,0.146-1.547,0.375
		c-0.339,0.229-0.508,0.578-0.508,1.047c0,0.672,0.385,1.008,1.156,1.008c0.552,0,0.993-0.159,1.324-0.477
		c0.331-0.317,0.496-0.739,0.496-1.266V157.953z"/>
	<path fill="#F4F4F4" d="M116.914,162.156c-1.026,0-1.832-0.398-2.418-1.195s-0.879-1.901-0.879-3.313
		c0-1.432,0.298-2.548,0.895-3.348c0.596-0.799,1.418-1.199,2.465-1.199c1.099,0,1.938,0.427,2.516,1.281h0.078
		c-0.12-0.651-0.18-1.231-0.18-1.742v-2.797h2.391V162h-1.828l-0.461-1.133h-0.102C118.849,161.727,118.023,162.156,116.914,162.156
		z M117.75,160.258c0.609,0,1.056-0.177,1.34-0.531c0.284-0.354,0.438-0.956,0.465-1.805v-0.258c0-0.938-0.145-1.609-0.434-2.016
		s-0.759-0.609-1.41-0.609c-0.531,0-0.944,0.226-1.238,0.676c-0.294,0.451-0.441,1.105-0.441,1.965s0.148,1.504,0.445,1.934
		S117.198,160.258,117.75,160.258z"/>
	<path fill="#F4F4F4" d="M127.82,162.156c-2.719,0-4.078-1.492-4.078-4.477c0-1.484,0.37-2.618,1.109-3.402
		c0.739-0.784,1.799-1.176,3.18-1.176c1.01,0,1.917,0.198,2.719,0.594l-0.703,1.844c-0.375-0.151-0.724-0.274-1.047-0.371
		c-0.323-0.096-0.646-0.145-0.969-0.145c-1.24,0-1.859,0.88-1.859,2.641c0,1.708,0.62,2.563,1.859,2.563
		c0.458,0,0.883-0.061,1.273-0.184c0.391-0.122,0.781-0.313,1.172-0.574v2.039c-0.386,0.245-0.775,0.414-1.168,0.508
		C128.915,162.109,128.419,162.156,127.82,162.156z"/>
	<path fill="#F4F4F4" d="M137.375,153.102c0.323,0,0.591,0.023,0.805,0.07l-0.18,2.234c-0.193-0.052-0.427-0.078-0.703-0.078
		c-0.761,0-1.353,0.195-1.777,0.586c-0.425,0.391-0.637,0.938-0.637,1.641V162H132.5v-8.734h1.805l0.352,1.469h0.117
		c0.271-0.489,0.637-0.884,1.098-1.184C136.332,153.251,136.833,153.102,137.375,153.102z"/>
	<path fill="#F4F4F4" d="M145.953,162l-0.32-1.117h-0.125c-0.255,0.406-0.617,0.72-1.086,0.941s-1.003,0.332-1.602,0.332
		c-1.026,0-1.8-0.274-2.32-0.824c-0.521-0.549-0.781-1.34-0.781-2.371v-5.695h2.383v5.102c0,0.63,0.112,1.103,0.336,1.418
		c0.224,0.315,0.581,0.473,1.07,0.473c0.667,0,1.148-0.223,1.445-0.668s0.445-1.184,0.445-2.215v-4.109h2.383V162H145.953z"/>
	<path fill="#F4F4F4" d="M158.102,162h-2.383v-5.102c0-0.63-0.105-1.103-0.316-1.418c-0.211-0.315-0.543-0.473-0.996-0.473
		c-0.609,0-1.052,0.224-1.328,0.672c-0.276,0.448-0.414,1.185-0.414,2.211V162h-2.383v-8.734h1.82l0.32,1.117h0.133
		c0.234-0.401,0.573-0.715,1.016-0.941c0.442-0.227,0.95-0.34,1.523-0.34c1.307,0,2.192,0.427,2.656,1.281h0.211
		c0.234-0.406,0.579-0.721,1.035-0.945c0.456-0.224,0.97-0.336,1.543-0.336c0.989,0,1.738,0.254,2.246,0.762
		s0.762,1.322,0.762,2.441V162h-2.391v-5.102c0-0.63-0.105-1.103-0.316-1.418c-0.211-0.315-0.543-0.473-0.996-0.473
		c-0.583,0-1.02,0.208-1.309,0.625c-0.289,0.417-0.434,1.078-0.434,1.984V162z"/>
	<path fill="#F4F4F4" d="M170.852,153.102c1.031,0,1.838,0.402,2.422,1.207c0.583,0.805,0.875,1.908,0.875,3.309
		c0,1.443-0.301,2.56-0.902,3.352c-0.602,0.792-1.421,1.188-2.457,1.188c-1.026,0-1.831-0.372-2.414-1.117h-0.164L167.813,162h-1.82
		v-12.156h2.383v2.828c0,0.359-0.031,0.935-0.094,1.727h0.094C168.932,153.534,169.758,153.102,170.852,153.102z M170.086,155.008
		c-0.589,0-1.019,0.181-1.289,0.543c-0.271,0.362-0.412,0.96-0.422,1.793v0.258c0,0.938,0.139,1.609,0.418,2.016
		c0.278,0.406,0.72,0.609,1.324,0.609c0.489,0,0.879-0.225,1.168-0.676c0.289-0.45,0.434-1.105,0.434-1.965
		s-0.146-1.504-0.438-1.934C170.989,155.223,170.591,155.008,170.086,155.008z"/>
	<path fill="#B2B2B2" d="M185.555,150.578L181.297,162h-2.164l4.258-11.422H185.555z"/>
	<path fill="#F4F4F4" d="M199.117,154.141c0,1.229-0.384,2.169-1.152,2.82c-0.769,0.651-1.861,0.977-3.277,0.977h-1.039V162h-2.422
		v-11.422h3.648c1.385,0,2.438,0.298,3.16,0.895C198.756,152.069,199.117,152.958,199.117,154.141z M193.648,155.953h0.797
		c0.745,0,1.302-0.147,1.672-0.441c0.37-0.294,0.555-0.723,0.555-1.285c0-0.567-0.155-0.987-0.465-1.258
		c-0.31-0.271-0.796-0.406-1.457-0.406h-1.102V155.953z"/>
	<path fill="#F4F4F4" d="M206.633,162l-0.461-1.188h-0.063c-0.401,0.505-0.813,0.855-1.238,1.051s-0.978,0.293-1.66,0.293
		c-0.839,0-1.499-0.239-1.98-0.719c-0.482-0.479-0.723-1.161-0.723-2.047c0-0.927,0.324-1.61,0.973-2.051
		c0.648-0.44,1.626-0.684,2.934-0.73l1.516-0.047v-0.383c0-0.885-0.453-1.328-1.359-1.328c-0.698,0-1.519,0.211-2.461,0.633
		l-0.789-1.609c1.005-0.526,2.12-0.789,3.344-0.789c1.172,0,2.07,0.255,2.695,0.766c0.625,0.511,0.938,1.287,0.938,2.328V162
		H206.633z M205.93,157.953l-0.922,0.031c-0.692,0.021-1.208,0.146-1.547,0.375c-0.339,0.229-0.508,0.578-0.508,1.047
		c0,0.672,0.386,1.008,1.156,1.008c0.552,0,0.993-0.159,1.324-0.477c0.331-0.317,0.496-0.739,0.496-1.266V157.953z"/>
	<path fill="#F4F4F4" d="M214.43,160.258c0.417,0,0.917-0.091,1.5-0.273v1.773c-0.594,0.266-1.323,0.398-2.188,0.398
		c-0.953,0-1.647-0.241-2.082-0.723c-0.435-0.481-0.652-1.204-0.652-2.168v-4.211h-1.141v-1.008l1.313-0.797l0.688-1.844h1.523
		v1.859h2.445v1.789h-2.445v4.211c0,0.339,0.095,0.589,0.285,0.75C213.866,160.177,214.117,160.258,214.43,160.258z"/>
	<path fill="#F4F4F4" d="M225.758,162h-2.383v-5.102c0-1.26-0.469-1.891-1.406-1.891c-0.667,0-1.148,0.227-1.445,0.68
		s-0.445,1.188-0.445,2.203V162h-2.383v-12.156h2.383v2.477c0,0.193-0.019,0.646-0.055,1.359l-0.055,0.703h0.125
		c0.531-0.854,1.375-1.281,2.531-1.281c1.026,0,1.805,0.276,2.336,0.828c0.531,0.552,0.797,1.344,0.797,2.375V162z"/>
</g>
<g>
	<g>
		<path fill-rule="evenodd" clip-rule="evenodd" fill="#F4F4F4" d="M33.887,86l-0.004-0.002l14-13.998l1.367,1.367L37.615,85H62v2
			H37.615L49.25,98.635L47.883,100l-14-13.998L33.887,86z"/>
	</g>
</g>
<path opacity="0.5" fill-rule="evenodd" clip-rule="evenodd" d="M760.999,274h-54c-1.65,0-3-1.35-3-3v-54c0-1.65,1.35-3,3-3h54
	c1.65,0,3,1.35,3,3v54C763.999,272.65,762.649,274,760.999,274z"/>
<path opacity="0.5" fill-rule="evenodd" clip-rule="evenodd" d="M760.999,126h-174c-1.65,0-3-1.35-3-3V69c0-1.65,1.35-3,3-3h174
	c1.65,0,3,1.35,3,3v54C763.999,124.65,762.649,126,760.999,126z"/>
<polygon fill-rule="evenodd" clip-rule="evenodd" fill="#FEFEFE" points="748.001,244 728,256 728,232 "/>
<path fill="#CCCCCC" d="M612,81.999c-7.732,0-14.001,6.27-14.001,14.001s6.269,14.001,14.001,14.001
	c7.73,0,13.999-6.27,13.999-14.001S619.731,81.999,612,81.999 M616.999,102v2h-10v-2h3v-6h-2v-2h6v8H616.999z M614.999,89
	c0,1.657-1.343,3-3,3l0,0c-1.657,0-3-1.343-3-3l0,0c0-1.657,1.343-3,3-3l0,0C613.657,86,614.999,87.343,614.999,89L614.999,89z"/>
<path fill-rule="evenodd" clip-rule="evenodd" fill="#CCCCCC" d="M681.484,99.691c-2.107-1.215-4.729-0.734-6.279,1.02l-5.423-3.129
	c0.166-0.502,0.277-1.025,0.277-1.582s-0.111-1.082-0.278-1.582l5.423-3.131c1.551,1.754,4.173,2.236,6.28,1.021
	c2.404-1.389,3.229-4.467,1.841-6.871c-1.389-2.404-4.465-3.231-6.871-1.842c-2.108,1.217-3,3.728-2.257,5.947l-5.421,3.131
	c-0.921-1.037-2.25-1.703-3.746-1.703c-2.778,0-5.03,2.252-5.03,5.029s2.252,5.029,5.03,5.029c1.497,0,2.826-0.668,3.747-1.705
	l5.42,3.131c-0.743,2.219,0.149,4.733,2.257,5.949c2.406,1.389,5.482,0.563,6.871-1.842
	C684.713,104.158,683.888,101.08,681.484,99.691z"/>
<path fill="#CCCCCC" d="M747.999,96v8l-16,6l-16-6v-8l8.75-3.25l2.25,2.25l-8.188,3l13.188,4.938L745.187,98l-8.188-3l2.25-2.25
	L747.999,96z M723.999,88h6v-8h4v8h6l-8,8L723.999,88z"/>
<g>
	<circle fill-rule="evenodd" clip-rule="evenodd" fill="#E00000" cx="338" cy="24" r="18"/>
	<g>
		<path fill="#FEFEFE" d="M341.14,33.007h-3.621v-9.914l0.035-1.629l0.059-1.781c-0.602,0.602-1.02,0.996-1.254,1.184l-1.969,1.582
			l-1.746-2.18l5.52-4.395h2.977V33.007z"/>
	</g>
</g>
<g>
	<circle fill-rule="evenodd" clip-rule="evenodd" fill="#E00000" cx="663.025" cy="24" r="18"/>
	<g>
		<path fill="#FEFEFE" d="M669.188,33.007h-11.977v-2.52l4.301-4.348c1.273-1.305,2.105-2.209,2.496-2.713s0.672-0.971,0.844-1.4
			s0.258-0.875,0.258-1.336c0-0.688-0.189-1.199-0.568-1.535s-0.885-0.504-1.518-0.504c-0.664,0-1.309,0.152-1.934,0.457
			s-1.277,0.738-1.957,1.301l-1.969-2.332c0.844-0.719,1.543-1.227,2.098-1.523s1.16-0.525,1.816-0.686s1.391-0.24,2.203-0.24
			c1.07,0,2.016,0.195,2.836,0.586s1.457,0.938,1.91,1.641s0.68,1.508,0.68,2.414c0,0.789-0.139,1.529-0.416,2.221
			s-0.707,1.4-1.289,2.127s-1.607,1.762-3.076,3.105l-2.203,2.074v0.164h7.465V33.007z"/>
	</g>
</g>
<g>
	<circle fill-rule="evenodd" clip-rule="evenodd" fill="#E00000" cx="778" cy="24" r="18"/>
	<g>
		<path fill="#FEFEFE" d="M783.495,19.706c0,1.07-0.324,1.98-0.973,2.73s-1.559,1.266-2.73,1.547v0.07
			c1.383,0.172,2.43,0.592,3.141,1.26s1.066,1.568,1.066,2.701c0,1.648-0.598,2.932-1.793,3.85s-2.902,1.377-5.121,1.377
			c-1.859,0-3.508-0.309-4.945-0.926v-3.082c0.664,0.336,1.395,0.609,2.191,0.82s1.586,0.316,2.367,0.316
			c1.195,0,2.078-0.203,2.648-0.609s0.855-1.059,0.855-1.957c0-0.805-0.328-1.375-0.984-1.711s-1.703-0.504-3.141-0.504h-1.301
			v-2.777h1.324c1.328,0,2.299-0.174,2.912-0.521s0.92-0.943,0.92-1.787c0-1.297-0.813-1.945-2.438-1.945
			c-0.563,0-1.135,0.094-1.717,0.281s-1.229,0.512-1.939,0.973l-1.676-2.496c1.563-1.125,3.426-1.688,5.59-1.688
			c1.773,0,3.174,0.359,4.201,1.078S783.495,18.425,783.495,19.706z"/>
	</g>
</g>
<g>
	<circle fill-rule="evenodd" clip-rule="evenodd" fill="#E00000" cx="24" cy="124" r="18"/>
	<g>
		<path fill="#FEFEFE" d="M29.625,129.456h-2.063v3.551h-3.539v-3.551h-7.313v-2.52l7.512-11.063h3.34v10.77h2.063V129.456z
			 M24.023,126.644v-2.906c0-0.484,0.02-1.188,0.059-2.109s0.07-1.457,0.094-1.605h-0.094c-0.289,0.641-0.637,1.266-1.043,1.875
			l-3.141,4.746H24.023z"/>
	</g>
</g>
<g>
	<circle fill-rule="evenodd" clip-rule="evenodd" fill="#E00000" cx="612" cy="154" r="18"/>
	<g>
		<path fill="#FEFEFE" d="M612.421,152.062c1.656,0,2.975,0.465,3.955,1.395s1.471,2.203,1.471,3.82c0,1.914-0.59,3.387-1.77,4.418
			s-2.867,1.547-5.063,1.547c-1.906,0-3.445-0.309-4.617-0.926v-3.129c0.617,0.328,1.336,0.596,2.156,0.803s1.598,0.311,2.332,0.311
			c2.211,0,3.316-0.906,3.316-2.719c0-1.727-1.145-2.59-3.434-2.59c-0.414,0-0.871,0.041-1.371,0.123s-0.906,0.17-1.219,0.264
			l-1.441-0.773l0.645-8.73h9.293v3.07h-6.117l-0.316,3.363l0.41-0.082C611.128,152.116,611.718,152.062,612.421,152.062z"/>
	</g>
</g>
<g>
	<circle fill-rule="evenodd" clip-rule="evenodd" fill="#E00000" cx="672" cy="154" r="18"/>
	<g>
		<path fill="#FEFEFE" d="M666.069,155.729c0-3.391,0.717-5.914,2.15-7.57s3.58-2.484,6.439-2.484c0.977,0,1.742,0.059,2.297,0.176
			v2.895c-0.695-0.156-1.383-0.234-2.063-0.234c-1.242,0-2.256,0.188-3.041,0.563s-1.373,0.93-1.764,1.664s-0.621,1.777-0.691,3.129
			h0.152c0.773-1.328,2.012-1.992,3.715-1.992c1.531,0,2.73,0.48,3.598,1.441s1.301,2.289,1.301,3.984
			c0,1.828-0.516,3.275-1.547,4.342s-2.461,1.6-4.289,1.6c-1.266,0-2.369-0.293-3.311-0.879s-1.668-1.441-2.18-2.566
			S666.069,157.315,666.069,155.729z M672.257,160.347c0.773,0,1.367-0.26,1.781-0.779s0.621-1.26,0.621-2.221
			c0-0.836-0.193-1.494-0.58-1.975s-0.971-0.721-1.752-0.721c-0.734,0-1.361,0.238-1.881,0.715s-0.779,1.031-0.779,1.664
			c0,0.93,0.244,1.715,0.732,2.355S671.507,160.347,672.257,160.347z"/>
	</g>
</g>
<g>
	<circle fill-rule="evenodd" clip-rule="evenodd" fill="#E00000" cx="732" cy="154" r="18"/>
	<g>
		<path fill="#FEFEFE" d="M727.886,163.007l6.434-14.063h-8.449v-3.047h12.293v2.273l-6.48,14.836H727.886z"/>
	</g>
</g>
<circle fill-rule="evenodd" clip-rule="evenodd" fill="#E00000" cx="676.591" cy="244.58" r="18"/>
<g>
	<path fill="#FEFEFE" d="M676.684,236.23c1.641,0,2.963,0.373,3.967,1.119s1.506,1.752,1.506,3.018c0,0.875-0.242,1.654-0.727,2.338
		s-1.266,1.295-2.344,1.834c1.281,0.688,2.201,1.404,2.76,2.15s0.838,1.564,0.838,2.455c0,1.406-0.551,2.537-1.652,3.393
		s-2.551,1.283-4.348,1.283c-1.875,0-3.348-0.398-4.418-1.195s-1.605-1.926-1.605-3.387c0-0.977,0.26-1.844,0.779-2.602
		s1.354-1.426,2.502-2.004c-0.977-0.617-1.68-1.277-2.109-1.98s-0.645-1.473-0.645-2.309c0-1.227,0.508-2.219,1.523-2.977
		S675.051,236.23,676.684,236.23z M674.012,249.027c0,0.672,0.234,1.195,0.703,1.57s1.109,0.563,1.922,0.563
		c0.898,0,1.57-0.193,2.016-0.58s0.668-0.896,0.668-1.529c0-0.523-0.221-1.014-0.662-1.471s-1.158-0.943-2.15-1.459
		C674.844,246.887,674.012,247.855,674.012,249.027z M676.66,238.879c-0.617,0-1.115,0.158-1.494,0.475s-0.568,0.74-0.568,1.271
		c0,0.469,0.15,0.889,0.451,1.26s0.846,0.752,1.635,1.143c0.766-0.359,1.301-0.727,1.605-1.102s0.457-0.809,0.457-1.301
		c0-0.539-0.195-0.965-0.586-1.277S677.27,238.879,676.66,238.879z"/>
</g>
<path fill="#444444" d="M270,360H20v-56c0-2.2,1.8-4,4-4h242c2.2,0,4,1.8,4,4V360z"/>
<path fill="#444444" d="M525,360H275v-56c0-2.2,1.8-4,4-4h242c2.2,0,4,1.8,4,4V360z"/>
<path fill="#444444" d="M780,360H530v-56c0-2.2,1.8-4,4-4h242c2.2,0,4,1.8,4,4V360z"/>
<path fill="#CCCCCC" d="M740.001,10C732.269,10,726,16.27,726,24.001s6.269,14.001,14.001,14.001c7.73,0,13.999-6.27,13.999-14.001
	S747.731,10,740.001,10 M748.416,24.167l-12.124,7v-14L748.416,24.167z"/>
<path fill="#CCCCCC" d="M48,18.416L34.6,8l-13.4,10.416v4.24l13.4-10.363L48,22.656V18.416z M34.6,15.752l-10.049,7.537V33.34h8.064
	v-8.016h3.969v8.016h8.066V23.289L34.6,15.752z"/>
</svg>
