<?xml version="1.0" encoding="utf-8"?>
<!-- Generator: Adobe Illustrator 19.2.1, SVG Export Plug-In . SVG Version: 6.00 Build 0)  -->
<svg version="1.1" id="Layer_1" xmlns="http://www.w3.org/2000/svg" xmlns:xlink="http://www.w3.org/1999/xlink" x="0px" y="0px"
	 viewBox="0 0 800 480" enable-background="new 0 0 800 480" xml:space="preserve">
<rect x="0" fill="#181818" width="800" height="480"/>
<path fill="#555555" d="M775,64H25c-2.761,0-5-2.239-5-5V0h760v59C780,61.761,777.761,64,775,64z"/>
<path fill="#555555" d="M775,416H25c-2.761,0-5,2.239-5,5v59h760v-59C780,418.239,777.761,416,775,416z"/>
<rect x="100" y="76" fill="#EEEEEE" width="600" height="324"/>
<g>
	<rect x="110" y="86" fill="#808080" width="580" height="304"/>
	<path fill="#666666" d="M690,390H110V232.282c0,0,55.825,51.981,115.608,51.981S372.349,183.55,503.87,183.55
		S690,232.282,690,232.282V390z"/>
</g>
<rect x="40" y="6" fill="#AAAAAA" width="60" height="52"/>
<rect x="104" y="6" fill="#AAAAAA" width="60" height="52"/>
<rect x="168" y="6" fill="#AAAAAA" width="60" height="52"/>
<rect x="232" y="6" fill="#AAAAAA" width="60" height="52"/>
<rect x="296" y="6" fill="#AAAAAA" width="60" height="52"/>
<rect x="360" y="6" fill="#AAAAAA" width="60" height="52"/>
<rect x="424" y="6" fill="#AAAAAA" width="60" height="52"/>
<rect x="488" y="6" fill="#AAAAAA" width="60" height="52"/>
<rect x="552" y="6" fill="#AAAAAA" width="60" height="52"/>
<rect x="616" y="6" fill="#AAAAAA" width="60" height="52"/>
<rect x="680" y="6" fill="#AAAAAA" width="60" height="52"/>
<rect x="744" y="6" fill="#AAAAAA" width="16" height="52"/>
<path fill-rule="evenodd" clip-rule="evenodd" fill="#AAAAAA" d="M28.89,31L34,25.889L32.111,24l-6.998,7l6.998,7L34,36.109
	L28.89,31z"/>
<path fill-rule="evenodd" clip-rule="evenodd" fill="#AAAAAA" d="M766,36.109L767.889,38l6.998-7l-6.998-7L766,25.889L771.109,31
	L766,36.109z"/>
<g>
	<path fill="#E6E6E6" d="M36.073,456v-15.705h2.567V456H36.073z"/>
	<path fill="#E6E6E6" d="M52.53,456h-2.535v-7.326c0-0.909-0.172-1.588-0.516-2.035c-0.344-0.448-0.881-0.672-1.611-0.672
		c-0.974,0-1.688,0.316-2.143,0.951c-0.455,0.633-0.682,1.688-0.682,3.163V456h-2.524v-11.881h1.977l0.354,1.558h0.129
		c0.329-0.565,0.807-1.003,1.434-1.311c0.626-0.308,1.316-0.462,2.068-0.462c1.826,0,3.036,0.623,3.631,1.869h0.172
		c0.351-0.587,0.845-1.046,1.482-1.375c0.637-0.329,1.368-0.494,2.191-0.494c1.418,0,2.451,0.358,3.099,1.074
		c0.648,0.716,0.972,1.809,0.972,3.276V456h-2.524v-7.326c0-0.909-0.174-1.588-0.521-2.035c-0.348-0.448-0.886-0.672-1.617-0.672
		c-0.981,0-1.699,0.307-2.154,0.918c-0.455,0.613-0.682,1.553-0.682,2.82V456z"/>
	<path fill="#E6E6E6" d="M70.985,456l-0.505-1.654h-0.086c-0.573,0.724-1.149,1.216-1.729,1.477
		c-0.58,0.262-1.325,0.393-2.234,0.393c-1.167,0-2.079-0.315-2.734-0.945s-0.983-1.521-0.983-2.675c0-1.225,0.455-2.148,1.364-2.771
		c0.909-0.623,2.295-0.963,4.157-1.021l2.052-0.064v-0.634c0-0.759-0.177-1.327-0.532-1.702c-0.354-0.377-0.904-0.564-1.649-0.564
		c-0.609,0-1.192,0.09-1.751,0.269s-1.096,0.391-1.611,0.634l-0.816-1.805c0.645-0.337,1.35-0.593,2.116-0.768
		c0.766-0.176,1.489-0.264,2.17-0.264c1.511,0,2.651,0.329,3.421,0.988c0.77,0.659,1.155,1.693,1.155,3.104V456H70.985z
		 M67.226,454.281c0.917,0,1.652-0.256,2.208-0.768c0.555-0.513,0.833-1.23,0.833-2.154v-1.031l-1.525,0.064
		c-1.189,0.043-2.054,0.242-2.594,0.596c-0.541,0.355-0.811,0.897-0.811,1.628c0,0.53,0.157,0.94,0.473,1.229
		C66.123,454.137,66.595,454.281,67.226,454.281z"/>
	<path fill="#E6E6E6" d="M86.347,444.119v1.386l-2.03,0.376c0.186,0.251,0.34,0.559,0.462,0.924c0.122,0.365,0.183,0.752,0.183,1.16
		c0,1.225-0.423,2.188-1.268,2.89c-0.845,0.702-2.009,1.053-3.491,1.053c-0.38,0-0.724-0.028-1.031-0.086
		c-0.544,0.337-0.816,0.73-0.816,1.182c0,0.272,0.127,0.477,0.381,0.612c0.254,0.136,0.721,0.204,1.402,0.204h2.073
		c1.311,0,2.306,0.279,2.986,0.838c0.68,0.559,1.021,1.364,1.021,2.417c0,1.347-0.555,2.385-1.665,3.115
		c-1.11,0.73-2.714,1.096-4.813,1.096c-1.619,0-2.854-0.286-3.706-0.859c-0.853-0.573-1.278-1.39-1.278-2.449
		c0-0.73,0.231-1.345,0.693-1.842c0.462-0.498,1.108-0.844,1.939-1.037c-0.337-0.144-0.614-0.374-0.833-0.693
		c-0.219-0.318-0.328-0.653-0.328-1.004c0-0.444,0.125-0.82,0.376-1.128c0.25-0.308,0.623-0.612,1.117-0.913
		c-0.616-0.265-1.116-0.696-1.499-1.295c-0.383-0.598-0.575-1.298-0.575-2.1c0-1.289,0.406-2.288,1.219-2.997
		c0.813-0.709,1.971-1.063,3.475-1.063c0.336,0,0.689,0.023,1.058,0.07c0.369,0.046,0.646,0.095,0.833,0.145H86.347z
		 M77.012,457.848c0,0.544,0.245,0.963,0.736,1.257c0.49,0.294,1.18,0.44,2.068,0.44c1.375,0,2.399-0.197,3.072-0.591
		c0.673-0.394,1.01-0.917,1.01-1.568c0-0.516-0.185-0.883-0.553-1.101c-0.369-0.219-1.055-0.328-2.057-0.328h-1.912
		c-0.724,0-1.298,0.17-1.724,0.51C77.225,456.808,77.012,457.268,77.012,457.848z M78.097,447.965c0,0.745,0.191,1.317,0.575,1.719
		c0.383,0.401,0.933,0.602,1.649,0.602c1.461,0,2.191-0.78,2.191-2.342c0-0.773-0.181-1.369-0.542-1.789
		c-0.362-0.418-0.912-0.628-1.649-0.628c-0.73,0-1.284,0.208-1.66,0.623S78.097,447.17,78.097,447.965z"/>
	<path fill="#E6E6E6" d="M93.737,456.215c-1.848,0-3.292-0.539-4.334-1.617c-1.042-1.077-1.563-2.562-1.563-4.452
		c0-1.94,0.483-3.466,1.45-4.576s2.295-1.665,3.985-1.665c1.568,0,2.807,0.477,3.717,1.429c0.909,0.952,1.364,2.263,1.364,3.932
		v1.364h-7.917c0.036,1.153,0.347,2.039,0.935,2.658c0.587,0.62,1.414,0.93,2.481,0.93c0.702,0,1.355-0.066,1.96-0.199
		c0.605-0.132,1.255-0.353,1.95-0.66v2.052c-0.616,0.294-1.239,0.501-1.869,0.623C95.266,456.154,94.546,456.215,93.737,456.215z
		 M93.275,445.816c-0.802,0-1.445,0.254-1.928,0.763s-0.772,1.25-0.865,2.224h5.393c-0.015-0.981-0.251-1.725-0.709-2.229
		C94.708,446.068,94.077,445.816,93.275,445.816z"/>
	<path fill="#E6E6E6" d="M111.73,456.215c-1.798,0-3.164-0.524-4.098-1.574c-0.935-1.049-1.402-2.555-1.402-4.517
		c0-1.998,0.489-3.534,1.466-4.608s2.39-1.611,4.238-1.611c1.253,0,2.381,0.232,3.384,0.698l-0.763,2.03
		c-1.067-0.415-1.948-0.623-2.643-0.623c-2.056,0-3.083,1.364-3.083,4.093c0,1.332,0.256,2.333,0.768,3.003
		c0.512,0.669,1.262,1.004,2.25,1.004c1.124,0,2.188-0.279,3.19-0.838v2.202c-0.451,0.265-0.933,0.455-1.445,0.569
		C113.082,456.157,112.461,456.215,111.73,456.215z"/>
	<path fill="#E6E6E6" d="M125.266,456l-0.505-1.654h-0.086c-0.573,0.724-1.149,1.216-1.729,1.477
		c-0.58,0.262-1.325,0.393-2.234,0.393c-1.167,0-2.079-0.315-2.734-0.945s-0.983-1.521-0.983-2.675c0-1.225,0.455-2.148,1.364-2.771
		c0.909-0.623,2.295-0.963,4.157-1.021l2.052-0.064v-0.634c0-0.759-0.177-1.327-0.532-1.702c-0.354-0.377-0.904-0.564-1.649-0.564
		c-0.609,0-1.192,0.09-1.751,0.269s-1.096,0.391-1.611,0.634l-0.816-1.805c0.645-0.337,1.35-0.593,2.116-0.768
		c0.766-0.176,1.489-0.264,2.17-0.264c1.511,0,2.651,0.329,3.421,0.988c0.77,0.659,1.155,1.693,1.155,3.104V456H125.266z
		 M121.506,454.281c0.917,0,1.652-0.256,2.208-0.768c0.555-0.513,0.833-1.23,0.833-2.154v-1.031l-1.525,0.064
		c-1.189,0.043-2.054,0.242-2.594,0.596c-0.541,0.355-0.811,0.897-0.811,1.628c0,0.53,0.157,0.94,0.473,1.229
		C120.403,454.137,120.875,454.281,121.506,454.281z"/>
	<path fill="#E6E6E6" d="M136.62,456.215c-1.504,0-2.671-0.541-3.502-1.622h-0.15c0.1,1.003,0.15,1.611,0.15,1.826v4.866h-2.524
		v-17.166h2.041c0.057,0.222,0.175,0.752,0.354,1.59h0.129c0.788-1.203,1.969-1.805,3.545-1.805c1.482,0,2.637,0.537,3.464,1.611
		s1.241,2.582,1.241,4.522s-0.421,3.455-1.262,4.544C139.264,455.671,138.103,456.215,136.62,456.215z M136.008,445.967
		c-1.003,0-1.735,0.294-2.197,0.881s-0.693,1.525-0.693,2.814v0.376c0,1.446,0.229,2.494,0.688,3.142
		c0.458,0.648,1.207,0.973,2.245,0.973c0.874,0,1.547-0.358,2.02-1.074s0.709-1.736,0.709-3.062c0-1.332-0.235-2.34-0.704-3.024
		C137.606,446.309,136.917,445.967,136.008,445.967z"/>
	<path fill="#E6E6E6" d="M148.727,454.174c0.616,0,1.231-0.097,1.848-0.29v1.901c-0.279,0.122-0.639,0.224-1.08,0.307
		c-0.44,0.082-0.897,0.123-1.37,0.123c-2.392,0-3.588-1.261-3.588-3.781v-6.402h-1.622v-1.117l1.74-0.924l0.859-2.514h1.558v2.643
		h3.384v1.912h-3.384v6.359c0,0.608,0.152,1.059,0.457,1.348C147.833,454.029,148.232,454.174,148.727,454.174z"/>
	<path fill="#E6E6E6" d="M152.798,440.972c0-0.451,0.124-0.799,0.371-1.042s0.6-0.365,1.058-0.365c0.444,0,0.79,0.122,1.037,0.365
		s0.371,0.591,0.371,1.042c0,0.43-0.124,0.769-0.371,1.015c-0.247,0.248-0.593,0.371-1.037,0.371c-0.458,0-0.811-0.123-1.058-0.371
		C152.921,441.74,152.798,441.401,152.798,440.972z M155.473,456h-2.524v-11.881h2.524V456z"/>
	<path fill="#E6E6E6" d="M169.62,450.038c0,1.94-0.498,3.455-1.493,4.544c-0.996,1.089-2.381,1.633-4.157,1.633
		c-1.11,0-2.091-0.251-2.943-0.752c-0.853-0.501-1.508-1.221-1.966-2.159c-0.458-0.938-0.688-2.026-0.688-3.266
		c0-1.927,0.494-3.431,1.482-4.512s2.381-1.622,4.179-1.622c1.719,0,3.079,0.553,4.082,1.66
		C169.119,446.67,169.62,448.162,169.62,450.038z M160.973,450.038c0,2.743,1.013,4.114,3.04,4.114c2.005,0,3.008-1.371,3.008-4.114
		c0-2.714-1.01-4.071-3.029-4.071c-1.06,0-1.828,0.351-2.304,1.053C161.21,447.722,160.973,448.728,160.973,450.038z"/>
	<path fill="#E6E6E6" d="M182.973,456h-2.535v-7.305c0-0.917-0.185-1.601-0.553-2.052c-0.369-0.451-0.955-0.677-1.756-0.677
		c-1.067,0-1.848,0.315-2.342,0.945s-0.741,1.687-0.741,3.169V456h-2.524v-11.881h1.977l0.354,1.558h0.129
		c0.358-0.565,0.866-1.003,1.525-1.311c0.659-0.308,1.389-0.462,2.191-0.462c2.85,0,4.275,1.45,4.275,4.351V456z"/>
</g>
<g>
	<circle fill-rule="evenodd" clip-rule="evenodd" fill="#E00000" cx="228" cy="164" r="18"/>
	<g>
		<path fill="#FEFEFE" d="M231.14,173.006h-3.621v-9.914l0.035-1.629l0.059-1.781c-0.602,0.602-1.02,0.996-1.254,1.184l-1.969,1.582
			l-1.746-2.18l5.52-4.395h2.977V173.006z"/>
	</g>
</g>
<g>
	<circle fill-rule="evenodd" clip-rule="evenodd" fill="#E00000" cx="278" cy="164" r="18"/>
	<g>
		<path fill="#FEFEFE" d="M284.163,173.006h-11.977v-2.52l4.301-4.348c1.273-1.305,2.105-2.209,2.496-2.713s0.672-0.971,0.844-1.4
			s0.258-0.875,0.258-1.336c0-0.688-0.189-1.199-0.568-1.535s-0.885-0.504-1.518-0.504c-0.664,0-1.309,0.152-1.934,0.457
			s-1.277,0.738-1.957,1.301l-1.969-2.332c0.844-0.719,1.543-1.227,2.098-1.523s1.16-0.525,1.816-0.686s1.391-0.24,2.203-0.24
			c1.07,0,2.016,0.195,2.836,0.586s1.457,0.938,1.91,1.641s0.68,1.508,0.68,2.414c0,0.789-0.139,1.529-0.416,2.221
			s-0.707,1.4-1.289,2.127s-1.607,1.762-3.076,3.105l-2.203,2.074v0.164h7.465V173.006z"/>
	</g>
</g>
<g>
	<circle fill-rule="evenodd" clip-rule="evenodd" fill="#E00000" cx="338" cy="164" r="18"/>
	<g>
		<path fill="#FEFEFE" d="M343.495,159.705c0,1.07-0.324,1.98-0.973,2.73s-1.559,1.266-2.73,1.547v0.07
			c1.383,0.172,2.43,0.592,3.141,1.26s1.066,1.568,1.066,2.701c0,1.648-0.598,2.932-1.793,3.85s-2.902,1.377-5.121,1.377
			c-1.859,0-3.508-0.309-4.945-0.926v-3.082c0.664,0.336,1.395,0.609,2.191,0.82s1.586,0.316,2.367,0.316
			c1.195,0,2.078-0.203,2.648-0.609s0.855-1.059,0.855-1.957c0-0.805-0.328-1.375-0.984-1.711s-1.703-0.504-3.141-0.504h-1.301
			v-2.777h1.324c1.328,0,2.299-0.174,2.912-0.521s0.92-0.943,0.92-1.787c0-1.297-0.813-1.945-2.438-1.945
			c-0.563,0-1.135,0.094-1.717,0.281s-1.229,0.512-1.939,0.973l-1.676-2.496c1.563-1.125,3.426-1.688,5.59-1.688
			c1.773,0,3.174,0.359,4.201,1.078S343.495,158.424,343.495,159.705z"/>
	</g>
</g>
<g>
	<circle fill-rule="evenodd" clip-rule="evenodd" fill="#E00000" cx="400" cy="164" r="18"/>
	<g>
		<path fill="#FEFEFE" d="M406.55,169.455h-2.063v3.551h-3.539v-3.551h-7.313v-2.52l7.512-11.063h3.34v10.77h2.063V169.455z
			 M400.948,166.643v-2.906c0-0.484,0.02-1.188,0.059-2.109s0.07-1.457,0.094-1.605h-0.094c-0.289,0.641-0.637,1.266-1.043,1.875
			l-3.141,4.746H400.948z"/>
	</g>
</g>
<g>
	<circle fill-rule="evenodd" clip-rule="evenodd" fill="#E00000" cx="460" cy="164" r="18"/>
	<g>
		<path fill="#FEFEFE" d="M460.421,162.061c1.656,0,2.975,0.465,3.955,1.395s1.471,2.203,1.471,3.82c0,1.914-0.59,3.387-1.77,4.418
			s-2.867,1.547-5.063,1.547c-1.906,0-3.445-0.309-4.617-0.926v-3.129c0.617,0.328,1.336,0.596,2.156,0.803s1.598,0.311,2.332,0.311
			c2.211,0,3.316-0.906,3.316-2.719c0-1.727-1.145-2.59-3.434-2.59c-0.414,0-0.871,0.041-1.371,0.123s-0.906,0.17-1.219,0.264
			l-1.441-0.773l0.645-8.73h9.293v3.07h-6.117l-0.316,3.363l0.41-0.082C459.128,162.115,459.718,162.061,460.421,162.061z"/>
	</g>
</g>
<g>
	<circle fill-rule="evenodd" clip-rule="evenodd" fill="#E00000" cx="520" cy="164" r="18"/>
	<g>
		<path fill="#FEFEFE" d="M514.069,165.729c0-3.391,0.717-5.914,2.15-7.57s3.58-2.484,6.439-2.484c0.977,0,1.742,0.059,2.297,0.176
			v2.895c-0.695-0.156-1.383-0.234-2.063-0.234c-1.242,0-2.256,0.188-3.041,0.563s-1.373,0.93-1.764,1.664s-0.621,1.777-0.691,3.129
			h0.152c0.773-1.328,2.012-1.992,3.715-1.992c1.531,0,2.73,0.48,3.598,1.441s1.301,2.289,1.301,3.984
			c0,1.828-0.516,3.275-1.547,4.342s-2.461,1.6-4.289,1.6c-1.266,0-2.369-0.293-3.311-0.879s-1.668-1.441-2.18-2.566
			S514.069,167.314,514.069,165.729z M520.257,170.346c0.773,0,1.367-0.26,1.781-0.779s0.621-1.26,0.621-2.221
			c0-0.836-0.193-1.494-0.58-1.975s-0.971-0.721-1.752-0.721c-0.734,0-1.361,0.238-1.881,0.715s-0.779,1.031-0.779,1.664
			c0,0.93,0.244,1.715,0.732,2.355S519.507,170.346,520.257,170.346z"/>
	</g>
</g>
<g>
	<circle fill-rule="evenodd" clip-rule="evenodd" fill="#E00000" cx="572" cy="164" r="18"/>
	<g>
		<path fill="#FEFEFE" d="M567.886,173.006l6.434-14.063h-8.449v-3.047h12.293v2.273l-6.48,14.836H567.886z"/>
	</g>
</g>
<g>
	<circle fill-rule="evenodd" clip-rule="evenodd" fill="#E00000" cx="748" cy="400" r="18"/>
	<g>
		<path fill="#FEFEFE" d="M744.89,409.006h-3.621v-9.914l0.035-1.629l0.059-1.781c-0.602,0.602-1.02,0.996-1.254,1.184l-1.969,1.582
			l-1.746-2.18l5.52-4.395h2.977V409.006z"/>
		<path fill="#FEFEFE" d="M759.744,395.705c0,1.07-0.324,1.98-0.973,2.73s-1.559,1.266-2.73,1.547v0.07
			c1.383,0.172,2.43,0.592,3.141,1.26s1.066,1.568,1.066,2.701c0,1.648-0.598,2.932-1.793,3.85s-2.902,1.377-5.121,1.377
			c-1.859,0-3.508-0.309-4.945-0.926v-3.082c0.664,0.336,1.395,0.609,2.191,0.82s1.586,0.316,2.367,0.316
			c1.195,0,2.078-0.203,2.648-0.609s0.855-1.059,0.855-1.957c0-0.805-0.328-1.375-0.984-1.711s-1.703-0.504-3.141-0.504h-1.301
			v-2.777h1.324c1.328,0,2.299-0.174,2.912-0.521s0.92-0.943,0.92-1.787c0-1.297-0.813-1.945-2.438-1.945
			c-0.563,0-1.135,0.094-1.717,0.281s-1.229,0.512-1.939,0.973l-1.676-2.496c1.563-1.125,3.426-1.688,5.59-1.688
			c1.773,0,3.174,0.359,4.201,1.078S759.744,394.424,759.744,395.705z"/>
	</g>
</g>
<g>
	<circle fill-rule="evenodd" clip-rule="evenodd" fill="#E00000" cx="700" cy="400" r="18"/>
	<g>
		<path fill="#FEFEFE" d="M696.89,409.006h-3.621v-9.914l0.035-1.629l0.059-1.781c-0.602,0.602-1.02,0.996-1.254,1.184l-1.969,1.582
			l-1.746-2.18l5.52-4.395h2.977V409.006z"/>
		<path fill="#FEFEFE" d="M712.412,409.006h-11.977v-2.52l4.301-4.348c1.273-1.305,2.105-2.209,2.496-2.713s0.672-0.971,0.844-1.4
			s0.258-0.875,0.258-1.336c0-0.688-0.189-1.199-0.568-1.535s-0.885-0.504-1.518-0.504c-0.664,0-1.309,0.152-1.934,0.457
			s-1.277,0.738-1.957,1.301l-1.969-2.332c0.844-0.719,1.543-1.227,2.098-1.523s1.16-0.525,1.816-0.686s1.391-0.24,2.203-0.24
			c1.07,0,2.016,0.195,2.836,0.586s1.457,0.938,1.91,1.641s0.68,1.508,0.68,2.414c0,0.789-0.139,1.529-0.416,2.221
			s-0.707,1.4-1.289,2.127s-1.607,1.762-3.076,3.105l-2.203,2.074v0.164h7.465V409.006z"/>
	</g>
</g>
<g>
	<circle fill-rule="evenodd" clip-rule="evenodd" fill="#E00000" cx="652" cy="400" r="18"/>
	<g>
		<path fill="#FEFEFE" d="M648.89,409.006h-3.621v-9.914l0.035-1.629l0.059-1.781c-0.602,0.602-1.02,0.996-1.254,1.184l-1.969,1.582
			l-1.746-2.18l5.52-4.395h2.977V409.006z"/>
		<path fill="#FEFEFE" d="M661.389,409.006h-3.621v-9.914l0.035-1.629l0.059-1.781c-0.602,0.602-1.02,0.996-1.254,1.184
			l-1.969,1.582l-1.746-2.18l5.52-4.395h2.977V409.006z"/>
	</g>
</g>
<g>
	<circle fill-rule="evenodd" clip-rule="evenodd" fill="#E00000" cx="604" cy="400" r="18"/>
	<g>
		<path fill="#FEFEFE" d="M600.89,409.006h-3.621v-9.914l0.035-1.629l0.059-1.781c-0.602,0.602-1.02,0.996-1.254,1.184l-1.969,1.582
			l-1.746-2.18l5.52-4.395h2.977V409.006z"/>
		<path fill="#FEFEFE" d="M616.318,400.439c0,2.992-0.49,5.207-1.471,6.645s-2.49,2.156-4.529,2.156
			c-1.977,0-3.467-0.742-4.471-2.227s-1.506-3.676-1.506-6.574c0-3.023,0.488-5.252,1.465-6.686s2.48-2.15,4.512-2.15
			c1.977,0,3.471,0.75,4.482,2.25S616.318,397.549,616.318,400.439z M607.939,400.439c0,2.102,0.182,3.607,0.545,4.518
			s0.975,1.365,1.834,1.365c0.844,0,1.453-0.461,1.828-1.383s0.563-2.422,0.563-4.5c0-2.102-0.189-3.611-0.568-4.529
			s-0.986-1.377-1.822-1.377c-0.852,0-1.461,0.459-1.828,1.377S607.939,398.338,607.939,400.439z"/>
	</g>
</g>
<g>
	<circle fill-rule="evenodd" clip-rule="evenodd" fill="#E00000" cx="556" cy="400" r="18"/>
	<g>
		<path fill="#FEFEFE" d="M562.093,399.186c0,3.375-0.711,5.895-2.133,7.559s-3.574,2.496-6.457,2.496
			c-1.016,0-1.785-0.055-2.309-0.164v-2.906c0.656,0.164,1.344,0.246,2.063,0.246c1.211,0,2.207-0.178,2.988-0.533
			s1.379-0.914,1.793-1.676s0.652-1.811,0.715-3.146h-0.141c-0.453,0.734-0.977,1.25-1.57,1.547s-1.336,0.445-2.227,0.445
			c-1.492,0-2.668-0.479-3.527-1.436s-1.289-2.287-1.289-3.99c0-1.836,0.521-3.287,1.564-4.354s2.463-1.6,4.26-1.6
			c1.266,0,2.373,0.297,3.322,0.891s1.678,1.455,2.186,2.584S562.093,397.623,562.093,399.186z M555.894,394.58
			c-0.75,0-1.336,0.258-1.758,0.773s-0.633,1.258-0.633,2.227c0,0.828,0.191,1.484,0.574,1.969s0.965,0.727,1.746,0.727
			c0.734,0,1.363-0.24,1.887-0.721s0.785-1.033,0.785-1.658c0-0.93-0.244-1.715-0.732-2.355S556.651,394.58,555.894,394.58z"/>
	</g>
</g>
<g>
	<circle fill-rule="evenodd" clip-rule="evenodd" fill="#E00000" cx="508" cy="400" r="18"/>
	<g>
		<path fill="#FEFEFE" d="M508.093,391.65c1.641,0,2.963,0.373,3.967,1.119s1.506,1.752,1.506,3.018
			c0,0.875-0.242,1.654-0.727,2.338s-1.266,1.295-2.344,1.834c1.281,0.688,2.201,1.404,2.76,2.15s0.838,1.564,0.838,2.455
			c0,1.406-0.551,2.537-1.652,3.393s-2.551,1.283-4.348,1.283c-1.875,0-3.348-0.398-4.418-1.195s-1.605-1.926-1.605-3.387
			c0-0.977,0.26-1.844,0.779-2.602s1.354-1.426,2.502-2.004c-0.977-0.617-1.68-1.277-2.109-1.98s-0.645-1.473-0.645-2.309
			c0-1.227,0.508-2.219,1.523-2.977S506.46,391.65,508.093,391.65z M505.421,404.447c0,0.672,0.234,1.195,0.703,1.57
			s1.109,0.563,1.922,0.563c0.898,0,1.57-0.193,2.016-0.58s0.668-0.896,0.668-1.529c0-0.523-0.221-1.014-0.662-1.471
			s-1.158-0.943-2.15-1.459C506.253,402.307,505.421,403.275,505.421,404.447z M508.069,394.299c-0.617,0-1.115,0.158-1.494,0.475
			s-0.568,0.74-0.568,1.271c0,0.469,0.15,0.889,0.451,1.26s0.846,0.752,1.635,1.143c0.766-0.359,1.301-0.727,1.605-1.102
			s0.457-0.809,0.457-1.301c0-0.539-0.195-0.965-0.586-1.277S508.679,394.299,508.069,394.299z"/>
	</g>
</g>
<g>
	<rect x="676" y="426" fill-rule="evenodd" clip-rule="evenodd" fill="#AAAAAA" width="46" height="40"/>
	<rect x="628" y="426" fill-rule="evenodd" clip-rule="evenodd" fill="#AAAAAA" width="46" height="40"/>
	<rect x="580" y="426" fill-rule="evenodd" clip-rule="evenodd" fill="#AAAAAA" width="46" height="40"/>
	<path fill-rule="evenodd" clip-rule="evenodd" fill="#AAAAAA" d="M491.6,426c-3.96,0-7.6,3.24-7.6,7.2v25.6
		c0,3.96,3.64,7.2,7.6,7.2H530v-40H491.6z"/>
	<rect x="532" y="426" fill-rule="evenodd" clip-rule="evenodd" fill="#AAAAAA" width="46" height="40"/>
	<path fill-rule="evenodd" clip-rule="evenodd" fill="#AAAAAA" d="M760.8,426H724v40h36.8c3.96,0,7.2-3.24,7.2-7.2v-25.6
		C768,429.24,764.76,426,760.8,426z"/>
</g>
<path fill-rule="evenodd" clip-rule="evenodd" d="M522,441.116v13.768c0,1.722-2.394,3.116-4.111,3.116h-21.777
	c-1.719,0-4.111-1.395-4.111-3.116v-13.768c0-1.721,2.393-3.116,4.111-3.116H501l0,0c0,0,1.399-4,3.126-4h5.748
	c1.726,0,3.126,2,3.126,4l0,0h4.889C519.606,438,522,439.396,522,441.116z M499.5,447.501c0,4.142,3.358,7.499,7.5,7.499
	c4.142,0,7.5-3.357,7.5-7.499c0-4.144-3.358-7.501-7.5-7.501C502.858,440,499.5,443.357,499.5,447.501z M502.5,447.501
	c0,2.485,2.015,4.499,4.5,4.499c2.485,0,4.5-2.014,4.5-4.499c0-2.486-2.015-4.501-4.5-4.501
	C504.515,443,502.5,445.014,502.5,447.501z"/>
<path fill-rule="evenodd" clip-rule="evenodd" d="M564.935,445.97c-0.914,2.129-8.915,13.051-8.915,13.051
	s-7.999-11.016-8.916-13.051c-0.645-1.433-1.105-3.553-1.105-5.161c0-5.418,4.583-9.81,10-9.81s10,4.392,10,9.81
	C566.001,442.404,565.51,444.631,564.935,445.97z M555.954,433.986c-3.869,0-7.007,3.136-7.007,7.005s3.138,7.005,7.007,7.005
	c3.867,0,7.005-3.136,7.005-7.005S559.821,433.986,555.954,433.986z"/>
<path fill-rule="evenodd" clip-rule="evenodd" d="M755.484,449.691c-2.107-1.215-4.729-0.734-6.28,1.02l-5.423-3.129
	c0.166-0.502,0.277-1.025,0.277-1.582s-0.111-1.082-0.278-1.582l5.423-3.131c1.551,1.754,4.173,2.236,6.28,1.021
	c2.404-1.389,3.229-4.467,1.841-6.871c-1.389-2.404-4.465-3.231-6.871-1.842c-2.108,1.217-3,3.728-2.257,5.947l-5.421,3.131
	c-0.921-1.037-2.25-1.703-3.746-1.703c-2.778,0-5.03,2.252-5.03,5.029s2.252,5.029,5.03,5.029c1.497,0,2.826-0.668,3.747-1.705
	l5.42,3.131c-0.743,2.219,0.149,4.733,2.257,5.949c2.406,1.389,5.483,0.563,6.871-1.842
	C758.714,454.158,757.889,451.08,755.484,449.691z"/>
<g>
	<path fill="#555555" d="M596,136H204c-2.761,0-5-2.239-5-5V64h402v67C601,133.761,598.761,136,596,136z"/>
	<path fill-rule="evenodd" clip-rule="evenodd" fill="#FEFEFE" d="M586,97.003L562,121l-2.051-2.049L581.901,97l-21.952-21.951
		L562,73l24,23.997L585.994,97L586,97.003z"/>
	<path fill-rule="evenodd" clip-rule="evenodd" fill="#FEFEFE" d="M214.006,97L214,96.997L238,73l2.051,2.049L218.099,97
		l21.952,21.951L238,121l-24-23.997L214.006,97z"/>
	<g>
		<path fill-rule="evenodd" clip-rule="evenodd" fill="#FEFEFE" d="M280.004,78.912l16.047,16.05l-2.048,2.051l-12.502-12.502V115
			h-3V84.511L266,97.015l-2.051-2.05l16.049-16.052l0.003,0.006L280.004,78.912z"/>
	</g>
	<path fill-rule="evenodd" clip-rule="evenodd" fill="#FEFEFE" d="M327.121,112H340v3h-15h-3v-3V97h3v12.881l10.424-10.427
		l2.121,2.121L327.121,112z M342.455,92.425l2.121,2.121L355,84.119V97h3V82v-3h-3h-15v3h12.879L342.455,92.425z"/>
	<g>
		<polygon fill-rule="evenodd" clip-rule="evenodd" fill="#FEFEFE" points="388,109 400,97 412,109 		"/>
		<path fill-rule="evenodd" clip-rule="evenodd" fill="#FEFEFE" d="M379,76.013v3h6V91h30V79.013h6v-3H379z M403,79.013V88h-6
			v-8.987H403z M388,79.013h6V88h-6V79.013z M412,88h-6v-8.987h6V88z"/>
	</g>
	<path fill-rule="evenodd" clip-rule="evenodd" fill="#FEFEFE" d="M472,85l-12,12l-12-12H472z M481,115v3h-42v-3h6v-12h30v12H481z
		 M472,115v-9h-24v9H472z"/>
	<path fill-rule="evenodd" clip-rule="evenodd" fill="#FEFEFE" d="M541,80.57c0-2.524-2.046-4.57-4.57-4.57h-32.86
		c-2.524,0-4.57,2.046-4.57,4.57v32.86c0,2.524,2.046,4.57,4.57,4.57h32.86c2.524,0,4.57-2.046,4.57-4.57V80.57z M514,106.612
		V87.531l17.111,9.539L514,106.612z"/>
</g>
<g>
	<path fill-rule="evenodd" clip-rule="evenodd" fill="#FFFFFF" d="M521.824,256.23l-26.35,6.765l2.931-9.934
		c-15.084-4.381-30.564-7.828-46.408-10.178l1.403-9.404c16.283,2.414,32.194,5.955,47.696,10.458l2.815-9.543L521.824,256.23z
		 M304.525,262.995l-26.35-6.765l17.912-21.836l2.816,9.546c15.502-4.503,31.412-8.046,47.695-10.46l1.402,9.395
		c-15.844,2.348-31.326,5.792-46.411,10.172L304.525,262.995z"/>
	<path fill-rule="evenodd" clip-rule="evenodd" fill="#FFFFFF" d="M427.639,286.376C427.506,293.922,421.358,300,413.78,300h-20.228
		c-5.932,0-10.376-4.489-12.514-7.919l-12.408-21.123c-1.603-2.776-0.659-6.322,2.109-7.92c2.768-1.598,6.311-0.643,7.913,2.133
		l2.582,4.396l0.181-1.932v-33.511c0-3.206,2.591-5.804,5.787-5.804s5.787,2.599,5.787,5.804v17.197
		c0.077-3.139,2.625-5.663,5.772-5.663c3.196,0,5.787,2.599,5.787,5.804v3.326c0.077-3.138,2.625-5.662,5.772-5.662
		c3.196,0,5.786,2.599,5.786,5.804v3.326c0.077-3.139,2.625-5.663,5.772-5.663c3.196,0,5.787,2.599,5.787,5.804v27.712
		C427.665,286.202,427.643,286.286,427.639,286.376z"/>
</g>
<path d="M667.015,446v8l-16,6l-16-6v-8l8.75-3.25l2.25,2.25l-8.188,3l13.188,4.938L664.203,448l-8.188-3l2.25-2.25L667.015,446z
	 M643.015,438h6v-8h4v8h6l-8,8L643.015,438z"/>
<g>
	<path fill="#999999" d="M437.566,454h-2.295v-9.219c0-1.101,0.026-1.973,0.078-2.617c-0.149,0.156-0.334,0.329-0.552,0.518
		s-0.949,0.788-2.192,1.797l-1.152-1.455l4.199-3.301h1.914V454z"/>
	<path fill="#999999" d="M449.002,439.723L443.689,454h-2.168l5.322-14.277H449.002z"/>
	<path fill="#999999" d="M456.785,454h-2.295v-9.219c0-1.101,0.026-1.973,0.078-2.617c-0.149,0.156-0.334,0.329-0.552,0.518
		s-0.949,0.788-2.192,1.797l-1.152-1.455l4.199-3.301h1.914V454z"/>
	<path fill="#999999" d="M471.141,446.861c0,2.48-0.398,4.323-1.196,5.527s-2.017,1.807-3.657,1.807
		c-1.589,0-2.793-0.622-3.613-1.865s-1.23-3.066-1.23-5.469c0-2.52,0.398-4.377,1.196-5.571s2.014-1.792,3.647-1.792
		c1.595,0,2.803,0.625,3.623,1.875S471.141,444.452,471.141,446.861z M463.768,446.861c0,1.946,0.2,3.337,0.601,4.17
		s1.04,1.25,1.919,1.25s1.521-0.423,1.929-1.27s0.61-2.229,0.61-4.15c0-1.914-0.203-3.299-0.61-4.155s-1.05-1.284-1.929-1.284
		s-1.519,0.42-1.919,1.26S463.768,444.915,463.768,446.861z"/>
</g>
<path fill-rule="evenodd" clip-rule="evenodd" d="M713,433c-0.73,0-1.344,0.414-1.693,1h-2.9l-0.969,4H688l2.719,10l13.781,2
	l-0.484,2H695c-1.656,0-3,1.344-3,3s1.344,3,3,3s3-1.344,3-3c0-0.352-0.072-0.686-0.184-1h4.367c-0.111,0.314-0.184,0.648-0.184,1
	c0,1.656,1.344,3,3,3s3-1.344,3-3c0-1.293-0.824-2.387-1.973-2.809L709.984,436h1.322c0.35,0.586,0.963,1,1.693,1
	c1.104,0,2-0.896,2-2S714.104,433,713,433z"/>
<path fill-rule="evenodd" clip-rule="evenodd" d="M615.969,458H592c0-3.43,3.236-5.312,7.775-5.986l0.003-0.018
	c2.628-0.496,0.66-3.57-0.143-4.947c-0.417-0.625-0.777-1.311-1.073-2.021c-0.506,0.062-0.988-0.252-1.101-0.76l-0.438-1.951
	c-0.112-0.5,0.182-0.982,0.652-1.148c-0.125-4.389,1.496-8.209,6.323-8.209s6.448,3.82,6.323,8.209
	c0.471,0.166,0.765,0.648,0.652,1.148l-0.438,1.951c-0.112,0.508-0.595,0.822-1.1,0.76c-0.296,0.711-0.655,1.394-1.071,2.019
	c-0.672,1.15-2.528,4.471-0.155,4.938C612.68,452.678,615.969,454.605,615.969,458z"/>
</svg>
